<?xml version="1.0" encoding="UTF-8"?>
<svg width="240px" height="43px" viewBox="0 0 240 43" version="1.1" xmlns="http://www.w3.org/2000/svg" xmlns:xlink="http://www.w3.org/1999/xlink">
    <title>Group</title>
    <defs>
        <linearGradient x1="36.1358492%" y1="2.42777047%" x2="64.2068915%" y2="98.7645694%" id="linearGradient-1">
            <stop stop-color="#5E5F62" offset="0%"></stop>
            <stop stop-color="#737577" offset="100%"></stop>
        </linearGradient>
    </defs>
    <g id="Symbols" stroke="none" stroke-width="1" fill="none" fill-rule="evenodd">
        <g id="Menu" transform="translate(-36.000000, -27.000000)">
            <g id="Group" transform="translate(35.999679, 27.000646)">
                <path d="M17.357422,0.615750158 C14.0192702,2.15715419 12.5619428,6.11498151 14.1049038,9.45313327 L14.1049038,9.45313327 L21.3012366,25.0399977 L21.8056961,24.5355382 L21.8181518,24.546437 C21.8337216,24.5308672 21.8461774,24.5137405 21.8617471,24.4966138 L21.8617471,24.4966138 C24.4618933,21.8980246 28.6781783,21.8980246 31.2798814,24.4966138 L31.2798814,24.4966138 C33.8800276,27.099874 33.8800276,31.3161589 31.2798814,33.9147481 L31.2798814,33.9147481 C31.2643117,33.9318749 31.247185,33.9443307 31.2300583,33.9583434 L31.2300583,33.9583434 L31.2331722,33.9630143 L26.3069072,35.879649 L27.5976385,38.6666321 C29.1390425,42.0063408 33.0968698,43.4621113 36.4365786,41.9207073 L36.4365786,41.9207073 C39.7747303,40.3793032 41.2320578,36.4214759 39.6906537,33.0833242 L39.6906537,33.0833242 L26.1963621,3.86826836 C25.072227,1.43471836 22.6620316,0.000745519215 20.145962,0.000745519215 L20.145962,0.000745519215 C19.2117778,0.000745519215 18.2620238,0.196924214 17.357422,0.615750158" id="Fill-1" fill="url(#linearGradient-1)"></path>
                <path d="M26.5052657,22.5475941 L26.5052657,22.5631638 C26.5270633,22.5631638 26.5488609,22.5600498 26.5706586,22.5600498 C30.2482306,22.5600498 33.2298354,25.5416546 33.2298354,29.2192267 C33.2298354,32.8983557 30.2482306,35.8799604 26.5706586,35.8799604 C26.5488609,35.8799604 26.5270633,35.8768465 26.5052657,35.8768465 L26.5052657,35.8768465 L26.5052657,35.8799604 L15.6344748,35.8799604 L20.1683824,22.5475941 L26.5052657,22.5475941 Z M20.1686938,22.5479055 L15.6332292,35.8802718 L13.4861624,35.8802718 L13.4861624,35.867816 C9.92069249,35.7401442 7.06831655,32.8161475 7.06831655,29.2195381 C7.06831655,25.6244856 9.92069249,22.7020459 13.4861624,22.572817 L13.4861624,22.572817 L13.4861624,22.5479055 L20.1686938,22.5479055 Z" id="Combined-Shape" fill="#F16549"></path>
                <path d="M22.9419755,0.614971671 L22.9419755,0.614971671 C26.2816842,2.1563757 27.7390117,6.11420302 26.1960507,9.45391176 L12.7079869,38.6658536 C11.1650259,42.0055623 7.20875558,43.4628898 3.86904685,41.9199288 C0.529338114,40.3785247 -0.92643236,36.4222544 0.614971671,33.0841026 L14.1045924,3.86904685 C15.6459964,0.529338114 19.6022668,-0.92643236 22.9419755,0.614971671" id="Fill-8" fill="#FEFEFE"></path>
                <path d="M63.0401223,13.2303516 L61.5952506,8.80387521 L61.2200199,7.47266264 L60.8338904,8.80387521 L59.4077025,13.2303516 L63.0401223,13.2303516 Z M63.6784815,15.2341769 L58.7864699,15.2341769 L57.9021088,18.0522994 L54.9096052,18.0522994 L59.8280854,4.73083183 L62.6462079,4.73083183 L67.6082833,18.0522994 L64.5706275,18.0522994 L63.6784815,15.2341769 Z" id="Fill-11" fill="#FEFEFE"></path>
                <polygon id="Fill-13" fill="#FEFEFE" points="69.3323203 18.0522994 72.0616954 18.0522994 72.0616954 3.50549347 69.3323203 3.50549347"></polygon>
                <polygon id="Fill-15" fill="#FEFEFE" points="74.875147 18.0522994 77.606079 18.0522994 77.606079 3.50549347 74.875147 3.50549347"></polygon>
                <path d="M80.7028998,18.0522994 L83.4338318,18.0522994 L83.4338318,8.07521148 L80.7028998,8.07521148 L80.7028998,18.0522994 Z M80.6157092,4.31200588 C80.7791915,4.05977613 80.9956108,3.85892652 81.2634103,3.71257098 C81.5327668,3.5631015 81.814579,3.48836676 82.113518,3.48836676 C82.591509,3.48836676 82.9729675,3.62693743 83.2594507,3.90407876 C83.5459339,4.18277706 83.6876185,4.53932405 83.6876185,4.97527671 C83.6876185,5.26798778 83.6082128,5.54201516 83.4478445,5.79580189 C83.2874762,6.04803164 83.0741708,6.25043823 82.8094853,6.39835073 C82.5432428,6.54782022 82.2583166,6.62255496 81.9562637,6.62255496 C81.6573247,6.62255496 81.3895252,6.55716206 81.1513082,6.42949021 C80.9115343,6.30026139 80.7215835,6.12276638 80.5814558,5.89544821 C80.4413282,5.66813004 80.3712644,5.41122937 80.3712644,5.12474619 C80.3712644,4.83203512 80.452227,4.56267866 80.6157092,4.31200588 L80.6157092,4.31200588 Z" id="Fill-16" fill="#FEFEFE"></path>
                <path d="M90.9614885,16.03415 C91.2822251,15.91582 91.4924166,15.7912621 91.5920629,15.6635902 L91.5920629,13.2814204 C91.2588705,13.2814204 90.8836399,13.3187877 90.4663709,13.3919655 C90.0491019,13.4651433 89.7392641,13.5476629 89.5337436,13.6410813 C89.272172,13.7391707 89.0619805,13.8746274 88.9047262,14.0443375 C88.7474718,14.2124907 88.6680662,14.4631635 88.6680662,14.7963558 C88.6680662,15.263448 88.7941811,15.6153241 89.0479678,15.855098 C89.3033115,16.094872 89.6333899,16.213202 90.042874,16.213202 C90.3340281,16.213202 90.6407519,16.154037 90.9614885,16.03415 M92.5931971,8.37539603 C93.1739483,8.58247354 93.606787,8.9405775 93.8932702,9.45282187 C94.1781964,9.96506624 94.3229949,10.6812742 94.3229949,11.6030026 L94.3229949,18.0613298 L92.7286538,18.0613298 C92.4670822,18.0613298 92.2677895,18.0426462 92.1338898,18.0083927 C91.99999,17.9725823 91.8956728,17.8916197 91.8193811,17.7623909 C91.7430894,17.634719 91.705722,17.4307555 91.705722,17.1505002 L91.705722,17.0804364 C91.4021121,17.3622486 91.0284384,17.5942377 90.5847009,17.7810746 C90.1409634,17.9679114 89.6489597,18.0613298 89.1055758,18.0613298 C88.4641026,18.0613298 87.8973642,17.9227592 87.4038035,17.6440609 C86.9102428,17.3669195 86.5287842,16.982347 86.2578708,16.4903433 C85.9854004,15.9967826 85.8499437,15.437829 85.8499437,14.8134826 C85.8499437,14.2311744 85.9994131,13.7313858 86.2999091,13.3172308 C86.601962,12.9030757 87.0316868,12.5698834 87.5906403,12.3192106 C88.4609887,11.9346381 89.7937582,11.7415733 91.5920629,11.7415733 L91.5920629,11.2153162 C91.5920629,10.9039214 91.5437967,10.6750463 91.4472644,10.5286907 C91.350732,10.3823352 91.1670091,10.2826889 90.8960956,10.2281948 C90.6251822,10.1752577 90.1970144,10.1487891 89.6131493,10.1487891 C89.332894,10.1487891 88.9078401,10.2095111 88.3348738,10.3309551 C87.7634644,10.4508421 87.2730177,10.5909697 86.8650906,10.748224 L86.2609847,9.1071737 C86.4945308,8.96704606 86.8339511,8.81446263 87.2761316,8.65253736 C87.7198692,8.48905511 88.2072019,8.34892747 88.73813,8.23682536 C89.2690581,8.12316628 89.7797455,8.06555825 90.2701922,8.06555825 C91.2386299,8.06555825 92.0124458,8.16831851 92.5931971,8.37539603" id="Fill-17" fill="#FEFEFE"></path>
                <path d="M99.3227491,8.074433 L99.3756862,9.2374924 C99.7773854,8.94478133 100.280288,8.67542487 100.879723,8.43097999 C101.482272,8.18653511 102.063023,8.06509115 102.621976,8.06509115 C103.339741,8.06509115 103.926721,8.18653511 104.381357,8.43097999 C104.83755,8.6738679 105.17697,9.07868108 105.401175,9.64230558 C105.625379,10.2059301 105.739038,10.9610624 105.739038,11.9123733 L105.739038,18.0515209 L103.008106,18.0515209 L103.008106,12.5071373 C103.008106,11.9528547 102.964511,11.5246869 102.875763,11.21952 C102.788573,10.9127962 102.64066,10.6963768 102.430469,10.565591 C102.220277,10.4332483 101.921338,10.3678554 101.536766,10.3678554 C101.245612,10.3678554 100.915533,10.4379192 100.548087,10.5780468 C100.180642,10.7197314 99.8567911,10.923695 99.5765358,11.1930515 L99.5765358,18.0515209 L96.8456038,18.0515209 L96.8456038,8.074433 L99.3227491,8.074433 Z" id="Fill-18" fill="#FEFEFE"></path>
                <path d="M109.002766,9.96444345 L107.803897,9.96444345 L107.803897,8.48687535 C108.188469,8.37010232 108.467167,8.27979784 108.639992,8.21596191 C108.811259,8.15056901 108.965399,8.06182151 109.099299,7.94816242 C109.233199,7.83606031 109.337516,7.68347688 109.413807,7.49508306 C109.536808,7.18835922 109.754785,6.57958248 110.07085,5.66719585 L111.733698,5.66719585 L111.733698,8.0742773 L114.438162,8.0742773 L114.438162,9.96444345 L111.733698,9.96444345 L111.733698,13.8895743 C111.733698,14.5388324 111.767952,15.0137094 111.838016,15.3110914 C111.908079,15.6069164 112.018625,15.7968672 112.171208,15.8809438 C112.322234,15.9634634 112.555781,16.0039447 112.870289,16.0039447 C113.116291,16.0039447 113.398103,15.9634634 113.715726,15.8809438 C114.033349,15.7984242 114.268452,15.7050057 114.419478,15.5975745 L114.752671,17.115624 C114.478643,17.3616258 114.069159,17.5796022 113.522661,17.7726669 C112.97772,17.9657317 112.389184,18.0607071 111.760167,18.0607071 C111.089111,18.0607071 110.553512,17.9595038 110.15337,17.7555402 C109.753228,17.5515766 109.462074,17.2261691 109.278351,16.7824316 C109.094628,16.3371371 109.002766,15.7439301 109.002766,15.0028106 L109.002766,9.96444345 Z" id="Fill-19" fill="#FEFEFE"></path>
                <path d="M117.008414,18.0522994 L119.739346,18.0522994 L119.739346,8.07521148 L117.008414,8.07521148 L117.008414,18.0522994 Z M116.921224,4.31200588 C117.084706,4.05977613 117.299568,3.85892652 117.568925,3.71257098 C117.836724,3.5631015 118.120093,3.48836676 118.417475,3.48836676 C118.895466,3.48836676 119.276925,3.62693743 119.563408,3.90407876 C119.849891,4.18277706 119.993133,4.53932405 119.993133,4.97527671 C119.993133,5.26798778 119.91217,5.54201516 119.751802,5.79580189 C119.591434,6.04803164 119.378128,6.25043823 119.113443,6.39835073 C118.8472,6.54782022 118.562274,6.62255496 118.260221,6.62255496 C117.962839,6.62255496 117.693483,6.55716206 117.453709,6.42949021 C117.215492,6.30026139 117.025541,6.12276638 116.885413,5.89544821 C116.745286,5.66813004 116.675222,5.41122937 116.675222,5.12474619 C116.675222,4.83203512 116.757741,4.56267866 116.921224,4.31200588 L116.921224,4.31200588 Z" id="Fill-20" fill="#FEFEFE"></path>
                <path d="M128.298498,11.7326986 C128.298498,11.1690741 128.178611,10.7393493 127.940394,10.4481952 C127.70062,10.1539272 127.312934,10.0091286 126.775778,10.0091286 C126.238622,10.0091286 125.810454,10.164826 125.492831,10.4777777 C125.175209,10.7922864 124.969688,11.3232145 124.87627,12.0752328 L128.289156,12.0752328 C128.295384,11.9973841 128.298498,11.883725 128.298498,11.7326986 M130.730491,13.5870543 L124.832674,13.5870543 C124.885612,14.4122504 125.144069,15.0225841 125.60649,15.4258403 C126.070469,15.8290965 126.699486,16.0299462 127.493543,16.0299462 C127.873444,16.0299462 128.331194,15.980123 128.871464,15.8773627 C129.411734,15.7761594 129.807206,15.6547155 130.057878,15.5145878 L130.50473,17.0637767 C130.159082,17.344032 129.643723,17.5791351 128.953984,17.7721998 C128.265802,17.9652646 127.549594,18.06024 126.802246,18.06024 C125.797998,18.06024 124.94322,17.8625043 124.23791,17.463919 C123.531044,17.0668907 122.997002,16.4908104 122.635784,15.7356781 C122.27301,14.9836598 122.093958,14.080615 122.093958,13.0296577 C122.093958,12.0752328 122.282351,11.2220112 122.662253,10.4699928 C123.042155,9.71953148 123.59488,9.1309954 124.32043,8.70594156 C125.047537,8.27933074 125.911657,8.06602534 126.915905,8.06602534 C127.638341,8.06602534 128.29227,8.19214021 128.876135,8.44281299 C129.46,8.69348577 129.927093,9.09674197 130.280526,9.65258161 C130.633959,10.2099782 130.816125,10.9246292 130.82858,11.8012054 C130.82858,12.6030469 130.795884,13.1978109 130.730491,13.5870543" id="Fill-21" fill="#FEFEFE"></path>
                <path d="M59.9095151,35.0189539 L60.448228,35.0189539 C61.3434879,35.0064982 62.1359876,34.780737 62.822613,34.3385564 C63.5092385,33.8948189 64.0448374,33.234662 64.426296,32.3565288 C64.8093115,31.4799526 65.0008193,30.4118686 65.0008193,29.1569477 C65.0008193,27.2683385 64.5913352,25.8359227 63.772367,24.8565862 C62.9549558,23.8756927 61.7202756,23.3852459 60.0714404,23.3852459 C59.7242352,23.3852459 59.3131941,23.4101575 58.8352032,23.4568667 C58.6312396,23.4942341 58.4521877,23.5098038 58.2964903,23.5098038 L58.2964903,34.8741554 C58.7153162,34.9706878 59.2524722,35.0189539 59.9095151,35.0189539 L59.9095151,35.0189539 Z M56.3969823,23.6717291 L54.9988198,23.4568667 L54.9988198,22.5616068 L57.3467363,22.5616068 C57.717296,22.5616068 58.2497811,22.5366952 58.9410774,22.4884291 C59.6354877,22.4417198 60.15396,22.4168083 60.5011651,22.4168083 C62.7245237,22.4168083 64.3764728,22.9773188 65.4570126,24.093669 C66.5391094,25.2115762 67.0793793,26.7794488 67.0793793,28.7988437 C67.0793793,30.207905 66.802238,31.4612689 66.2463983,32.5542645 C65.6905587,33.6472601 64.9105148,34.4989247 63.9062668,35.1092584 C62.9035757,35.7180352 61.7498581,36.023202 60.448228,36.023202 C60.1617448,36.023202 59.6712981,35.9982904 58.9784448,35.9515812 C58.2606799,35.9017581 57.7235239,35.8799604 57.36542,35.8799604 L54.9100723,35.8799604 L54.9100723,35.0002703 L56.3969823,34.8212183 L56.3969823,23.6717291 Z" id="Fill-22" fill="#FEFEFE"></path>
                <path d="M70.3438862,23.8160606 C70.1523784,23.5996412 70.0558461,23.3271708 70.0558461,22.9924215 C70.0558461,22.6094059 70.1741761,22.2917833 70.4061652,22.0411105 C70.6397112,21.7904377 70.9588908,21.6643228 71.365261,21.6643228 C71.7716311,21.6643228 72.0705701,21.773311 72.2620779,21.9866164 C72.4520287,22.2030358 72.5485611,22.4786201 72.5485611,22.8118125 C72.5485611,23.2181827 72.431788,23.5404762 72.198242,23.7802502 C71.9662529,24.0200242 71.6408454,24.1383542 71.2220194,24.1383542 L71.2033357,24.1383542 C70.8218772,24.1383542 70.535394,24.030923 70.3438862,23.8160606 L70.3438862,23.8160606 Z M70.4871278,27.3114667 L69.1247757,26.9876162 L69.1247757,26.0394191 L71.9024169,25.6984419 L71.9382273,25.6984419 L72.3508254,26.0207354 L72.3508254,34.8581186 L73.7847982,35.0013601 L73.7847982,35.8794933 L69.0344713,35.8794933 L69.0344713,35.0013601 L70.4871278,34.8394349 L70.4871278,27.3114667 Z" id="Fill-23" fill="#FEFEFE"></path>
                <path d="M81.8128664,28.9416182 C81.8128664,28.1413337 81.6369283,27.5527976 81.2834953,27.17601 C80.9316192,26.8007793 80.4022481,26.6123855 79.698496,26.6123855 C79.0398961,26.6123855 78.5214238,26.7945514 78.1384083,27.1573263 C77.7569497,27.5232151 77.563885,28.1055233 77.563885,28.9073648 C77.563885,29.6593831 77.7476079,30.2572611 78.1119397,30.6994416 C78.4762716,31.1416222 79.0274403,31.3627124 79.7701168,31.3627124 C81.1324688,31.3627124 81.8128664,30.5546431 81.8128664,28.9416182 M81.4625473,39.4184947 C81.9825765,39.2456706 82.4045164,38.98877 82.72681,38.6477927 C83.0491036,38.3083724 83.2110288,37.9113441 83.2110288,37.4567078 C83.2110288,36.9179949 83.0677872,36.5271944 82.7813041,36.2827496 C82.4932639,36.0383047 81.9389813,35.9153037 81.1137852,35.9153037 L78.9994148,35.9153037 C78.5214238,35.9153037 78.1446362,35.8857212 77.8690518,35.8249993 C77.3786051,36.3637122 77.1341602,36.966261 77.1341602,37.6357598 C77.1341602,38.3052585 77.3365668,38.8128319 77.7444939,39.1584801 C78.1493071,39.5056853 78.8374895,39.6785093 79.8043702,39.6785093 C80.3897924,39.6785093 80.942518,39.5928758 81.4625473,39.4184947 M83.2826496,27.2227192 C83.5691328,27.6648997 83.7123744,28.1787011 83.7123744,28.7641232 C83.7123744,29.4678754 83.5364363,30.0922218 83.1845603,30.6356057 C82.8311272,31.1789895 82.3422375,31.6009294 81.714777,31.8998684 C81.0873166,32.1988074 80.3788935,32.3482768 79.5895078,32.3482768 C79.0757065,32.3482768 78.6163992,32.2937828 78.2100291,32.1863516 C78.0434329,32.3529478 77.9048622,32.5397846 77.797431,32.7421912 C77.6899998,32.9445978 77.6370627,33.1423335 77.6370627,33.3338412 C77.6370627,33.765123 77.7803043,34.059391 78.0667875,34.2213163 C78.3532707,34.3816846 78.867072,34.4626472 79.6081915,34.4626472 L81.6338144,34.4626472 C82.7922029,34.4626472 83.6532094,34.6837375 84.2137199,35.125918 C84.7757875,35.5680986 85.0575997,36.195559 85.0575997,37.0082993 C85.0575997,37.6886969 84.8115979,38.3146003 84.3227081,38.8813388 C83.8322614,39.4480772 83.1721045,39.8964857 82.3422375,40.2250071 C81.5108135,40.5535286 80.6124396,40.7185678 79.6440019,40.7185678 C78.1150537,40.7185678 77.0064884,40.4756799 76.3183059,39.993018 C75.6316805,39.5087992 75.2891463,38.8424144 75.2891463,37.9938637 C75.2891463,37.4691636 75.4526285,36.9849447 75.78115,36.5427642 C76.1096715,36.1005836 76.5004719,35.7658343 76.9551082,35.5385161 C76.4054965,35.2271213 76.1314691,34.7257758 76.1314691,34.0329225 C76.1314691,33.6016407 76.256027,33.1952706 76.5066998,32.813812 C76.7573726,32.4307964 77.087451,32.1396424 77.4938211,31.9356788 C76.8959432,31.6725502 76.4381929,31.2973195 76.1221273,30.8053158 C75.8060616,30.3164261 75.6472503,29.7372318 75.6472503,29.0677331 C75.6472503,28.3748798 75.841872,27.770774 76.2295584,27.2569726 C76.6172449,26.7431713 77.1310463,26.3492569 77.7709625,26.0736726 C78.4093217,25.7996452 79.0881623,25.6626315 79.8043702,25.6626315 C81.0125819,25.6626315 81.956108,25.9133043 82.6380625,26.4146498" id="Fill-24" fill="#FEFEFE"></path>
                <path d="M88.153175,23.8160606 C87.9616672,23.5996412 87.8666918,23.3271708 87.8666918,22.9924215 C87.8666918,22.6094059 87.9834648,22.2917833 88.2170109,22.0411105 C88.449,21.7904377 88.7681796,21.6643228 89.1745498,21.6643228 C89.5809199,21.6643228 89.8798589,21.773311 90.0713666,21.9866164 C90.2613174,22.2030358 90.3578498,22.4786201 90.3578498,22.8118125 C90.3578498,23.2181827 90.2410768,23.5404762 90.0075307,23.7802502 C89.7755416,24.0200242 89.4501341,24.1383542 89.0313082,24.1383542 L89.0141815,24.1383542 C88.6311659,24.1383542 88.3446827,24.030923 88.153175,23.8160606 L88.153175,23.8160606 Z M88.2964165,27.3114667 L86.9340645,26.9876162 L86.9340645,26.0394191 L89.7117057,25.6984419 L89.7490731,25.6984419 L90.1616711,26.0207354 L90.1616711,34.8581186 L91.594087,35.0013601 L91.594087,35.8794933 L86.845317,35.8794933 L86.845317,35.0013601 L88.2964165,34.8394349 L88.2964165,27.3114667 Z" id="Fill-25" fill="#FEFEFE"></path>
                <path d="M94.7293651,35.592076 C94.3946157,35.2822382 94.2280195,34.7497532 94.2280195,33.9977349 L94.2280195,27.1143538 L92.9372883,27.1143538 L92.9372883,26.3062844 C92.9964533,26.2953856 93.1646064,26.2533473 93.4386338,26.1817265 C93.7142182,26.1101057 93.8979411,26.0447128 93.9944734,25.9839909 C94.1844242,25.8781166 94.3354507,25.6616973 94.4428819,25.3394037 C94.5378573,25.1136425 94.6515164,24.7477537 94.7838591,24.2464081 C94.9146449,23.7450626 94.9909367,23.4445666 95.0158482,23.3495912 L96.0730334,23.3495912 L96.1088438,25.9310538 L98.531495,25.9310538 L98.531495,27.1143538 L96.1088438,27.1143538 L96.1088438,32.6166991 C96.1088438,33.2970967 96.1306415,33.7750876 96.1726797,34.050672 C96.214718,34.3262563 96.3034655,34.5053083 96.4420362,34.5878279 C96.5774929,34.6719045 96.8141529,34.7139428 97.1489023,34.7139428 C97.4711959,34.7139428 97.8277429,34.6719045 98.2154293,34.5878279 C98.6031158,34.5053083 98.9051687,34.4150038 99.1200311,34.3200284 L99.3893876,35.1249839 C99.1029044,35.3414032 98.6404832,35.5515947 98.000567,35.7540013 C97.3606507,35.9564079 96.7783425,36.0591681 96.2536424,36.0591681 C95.5716879,36.0591681 95.0641144,35.9019138 94.7293651,35.592076" id="Fill-26" fill="#FEFEFE"></path>
                <path d="M105.491323,34.5703898 C105.897694,34.378882 106.268253,34.1515639 106.603003,33.8899923 L106.603003,30.8056272 C105.299816,30.8056272 104.317365,31.0064768 103.654094,31.4066191 C102.990824,31.8083183 102.659188,32.3299045 102.659188,32.9760487 C102.659188,33.6206358 102.817999,34.0955128 103.134065,34.4006797 C103.450131,34.7058465 103.878299,34.8584299 104.415455,34.8584299 C104.726849,34.8584299 105.084953,34.7618976 105.491323,34.5703898 L105.491323,34.5703898 Z M101.475888,26.7621664 C101.595775,26.6936595 101.732789,26.6204817 101.888486,26.5410761 C102.307312,26.3246567 102.791531,26.1347059 103.341143,25.9681097 C103.889197,25.7999566 104.440366,25.71588 104.989978,25.71588 C105.838529,25.71588 106.509584,25.832653 107.006259,26.0646421 C107.501377,26.2997451 107.857924,26.6718619 108.072786,27.1856632 C108.287648,27.6994646 108.39508,28.38609 108.39508,29.2470965 L108.39508,35.0001146 L109.452265,35.0001146 L109.452265,35.7895003 C109.214048,35.8486653 108.911995,35.9078303 108.547663,35.9685522 C108.183331,36.0292742 107.862595,36.0588567 107.588567,36.0588567 C107.253818,36.0588567 107.0265,36.0074766 106.906613,35.9047163 C106.788283,35.80507 106.727561,35.5793088 106.727561,35.2336606 L106.727561,34.6420106 C106.369457,35.0001146 105.93039,35.328636 105.410361,35.629132 C104.890332,35.926514 104.301795,36.0759834 103.644753,36.0759834 C102.785303,36.0759834 102.070652,35.8284246 101.502357,35.33175 C100.935618,34.8366323 100.652249,34.1219814 100.652249,33.1893541 C100.652249,32.068333 101.21276,31.2384659 102.336895,30.7090949 C103.459473,30.1766098 104.88099,29.8916836 106.603003,29.8574302 L106.603003,29.3545277 C106.603003,28.7924601 106.542281,28.3502796 106.423951,28.027986 C106.304064,27.7056925 106.098543,27.4690324 105.805832,27.3211199 C105.511564,27.1700935 105.097409,27.0953587 104.558696,27.0953587 C103.949919,27.0953587 103.403422,27.1825493 102.919203,27.3553734 C102.606251,27.4674755 102.294856,27.5967043 101.985019,27.7399459 L101.475888,26.7621664 Z" id="Fill-27" fill="#FEFEFE"></path>
                <path d="M115.926317,34.5703898 C116.332688,34.378882 116.703247,34.1515639 117.037997,33.8899923 L117.037997,30.8056272 C115.73481,30.8056272 114.752359,31.0064768 114.089088,31.4066191 C113.425817,31.8083183 113.094182,32.3299045 113.094182,32.9760487 C113.094182,33.6206358 113.252993,34.0955128 113.569059,34.4006797 C113.885125,34.7058465 114.313293,34.8584299 114.850448,34.8584299 C115.161843,34.8584299 115.519947,34.7618976 115.926317,34.5703898 L115.926317,34.5703898 Z M111.910882,26.7621664 C112.030769,26.6936595 112.167783,26.6204817 112.32348,26.5410761 C112.742306,26.3246567 113.224968,26.1347059 113.77458,25.9681097 C114.324191,25.7999566 114.873803,25.71588 115.423415,25.71588 C116.273522,25.71588 116.944578,25.832653 117.441253,26.0646421 C117.93637,26.2997451 118.292917,26.6718619 118.50778,27.1856632 C118.722642,27.6994646 118.830073,28.38609 118.830073,29.2470965 L118.830073,35.0001146 L119.887259,35.0001146 L119.887259,35.7895003 C119.649042,35.8486653 119.346989,35.9078303 118.982657,35.9685522 C118.618325,36.0292742 118.297588,36.0588567 118.023561,36.0588567 C117.688812,36.0588567 117.461493,36.0074766 117.341607,35.9047163 C117.223276,35.80507 117.162555,35.5793088 117.162555,35.2336606 L117.162555,34.6420106 C116.804451,35.0001146 116.365384,35.328636 115.845355,35.629132 C115.325325,35.926514 114.736789,36.0759834 114.079746,36.0759834 C113.220297,36.0759834 112.505646,35.8284246 111.937351,35.33175 C111.370612,34.8366323 111.087243,34.1219814 111.087243,33.1893541 C111.087243,32.068333 111.647753,31.2384659 112.771888,30.7090949 C113.894467,30.1766098 115.315984,29.8916836 117.037997,29.8574302 L117.037997,29.3545277 C117.037997,28.7924601 116.977275,28.3502796 116.858945,28.027986 C116.739058,27.7056925 116.533537,27.4690324 116.239269,27.3211199 C115.946558,27.1700935 115.532403,27.0953587 114.99369,27.0953587 C114.384913,27.0953587 113.838416,27.1825493 113.354197,27.3553734 C113.041245,27.4674755 112.72985,27.5967043 112.420012,27.7399459 L111.910882,26.7621664 Z" id="Fill-28" fill="#FEFEFE"></path>
                <path d="M147.504548,34.5703898 C147.910918,34.378882 148.281478,34.1515639 148.61467,33.8899923 L148.61467,30.8056272 C147.31304,30.8056272 146.33059,31.0064768 145.667319,31.4066191 C145.004048,31.8083183 144.672413,32.3299045 144.672413,32.9760487 C144.672413,33.6206358 144.831224,34.0955128 145.14729,34.4006797 C145.463355,34.7058465 145.891523,34.8584299 146.428679,34.8584299 C146.740074,34.8584299 147.098178,34.7618976 147.504548,34.5703898 L147.504548,34.5703898 Z M143.489113,26.7621664 C143.609,26.6936595 143.746013,26.6204817 143.901711,26.5410761 C144.320537,26.3246567 144.803198,26.1347059 145.35281,25.9681097 C145.902422,25.7999566 146.452034,25.71588 147.001645,25.71588 C147.850196,25.71588 148.522809,25.832653 149.019483,26.0646421 C149.514601,26.2997451 149.871148,26.6718619 150.08601,27.1856632 C150.300873,27.6994646 150.408304,28.38609 150.408304,29.2470965 L150.408304,35.0001146 L151.465489,35.0001146 L151.465489,35.7895003 C151.227272,35.8486653 150.925219,35.9078303 150.560887,35.9685522 C150.196556,36.0292742 149.875819,36.0588567 149.601792,36.0588567 C149.267042,36.0588567 149.039724,36.0074766 148.919837,35.9047163 C148.801507,35.80507 148.740785,35.5793088 148.740785,35.2336606 L148.740785,34.6420106 C148.382681,35.0001146 147.943615,35.328636 147.423585,35.629132 C146.903556,35.926514 146.31502,36.0759834 145.657977,36.0759834 C144.798528,36.0759834 144.083877,35.8284246 143.515581,35.33175 C142.948843,34.8366323 142.665473,34.1219814 142.665473,33.1893541 C142.665473,32.068333 143.225984,31.2384659 144.350119,30.7090949 C145.472697,30.1766098 146.894214,29.8916836 148.61467,29.8574302 L148.61467,29.3545277 C148.61467,28.7924601 148.555505,28.3502796 148.437175,28.027986 C148.317288,27.7056925 148.110211,27.4690324 147.8175,27.3211199 C147.524789,27.1700935 147.110634,27.0953587 146.571921,27.0953587 C145.963144,27.0953587 145.416646,27.1825493 144.932427,27.3553734 C144.619476,27.4674755 144.308081,27.5967043 143.998243,27.7399459 L143.489113,26.7621664 Z" id="Fill-29" fill="#FEFEFE"></path>
                <polygon id="Fill-30" fill="#FEFEFE" points="122.788368 22.7577855 121.337268 22.5600498 121.337268 21.7893478 124.222341 21.4483706 124.258151 21.4483706 124.653622 21.717727 124.653622 34.8570287 126.176343 35.0002703 126.176343 35.8799604 121.337268 35.8799604 121.337268 35.0002703 122.788368 34.839902"></polygon>
                <path d="M134.421453,35.9145253 C133.931006,35.8070941 133.39385,35.6638525 132.808428,35.4848005 C132.450324,35.3540147 132.180968,35.2823939 132.001916,35.2699381 L132.145157,32.7024884 L133.292647,32.7024884 L133.597814,34.3559945 C133.800221,34.5459453 134.131856,34.7156555 134.591163,34.8666819 C135.052027,35.0161514 135.556487,35.0908861 136.107656,35.0908861 C137.015371,35.0908861 137.705111,34.8869226 138.176874,34.4805524 C138.648637,34.0741823 138.885297,33.5136717 138.885297,32.7959068 C138.885297,32.3288147 138.756068,31.9286724 138.499167,31.59548 C138.242267,31.2607307 137.901289,30.9742475 137.477793,30.7344735 C137.052739,30.4962565 136.470431,30.2144443 135.729311,29.8921507 C135.061369,29.5932118 134.477504,29.2880449 133.982386,28.9782071 C133.485712,28.6683693 133.055987,28.2526573 132.691655,27.7326281 C132.327323,27.2125989 132.145157,26.5882524 132.145157,25.8595887 C132.145157,25.2025457 132.321095,24.6124527 132.672972,24.0939804 C133.026405,23.5739512 133.533978,23.166024 134.197249,22.8655281 C134.86052,22.5681461 135.634336,22.4171197 136.518697,22.4171197 C137.068308,22.4171197 137.555641,22.4591579 137.979138,22.5432345 C138.404192,22.6273111 138.885297,22.7409702 139.422453,22.8842118 C139.66067,22.9682884 139.864633,23.0212255 140.032787,23.0445801 L139.923798,25.3800407 L138.830803,25.3800407 L138.472699,23.8510925 C138.352812,23.7327625 138.105253,23.6191034 137.728465,23.5101152 C137.351678,23.404241 136.942194,23.3497469 136.500013,23.3497469 C135.676374,23.3497469 135.052027,23.522571 134.626974,23.8697762 C134.203477,24.2154244 133.991728,24.7183269 133.991728,25.3738128 C133.991728,25.8533608 134.1194,26.253503 134.376301,26.5757966 C134.633201,26.8980902 134.952381,27.1736745 135.335397,27.4009927 C135.718412,27.6283109 136.327189,27.9381486 137.163284,28.33362 C137.940214,28.7026228 138.573902,29.0373721 139.064349,29.3363111 C139.553239,29.63525 139.975178,30.0276074 140.327055,30.5102693 C140.680488,30.9944881 140.856426,31.5705684 140.856426,32.2416241 C140.856426,32.8737555 140.680488,33.4825322 140.327055,34.0679544 C139.975178,34.6533765 139.438023,35.1344814 138.71403,35.5112691 C137.991594,35.8880567 137.116575,36.0764505 136.088972,36.0764505 C135.466182,36.0764505 134.910343,36.0219564 134.421453,35.9145253" id="Fill-31" fill="#FEFEFE"></path>
                <path d="M153.022307,35.0007374 L154.115303,34.8388121 L154.115303,27.3124009 L152.826129,26.9885503 L152.826129,26.0201127 L155.388907,25.6978191 L155.711201,25.9313651 L155.818632,26.6475731 L155.799948,27.2220964 C156.218774,26.8390809 156.788627,26.4887618 157.51262,26.1726961 C158.235055,25.8566304 158.884314,25.6978191 159.45728,25.6978191 C160.101867,25.6978191 160.621896,25.8052503 161.017368,26.0201127 C161.411282,26.234975 161.710221,26.5697244 161.912627,27.0243607 C162.295643,26.7020672 162.829685,26.4000143 163.517867,26.119759 C164.204493,25.8379467 164.845966,25.6978191 165.443844,25.6978191 C166.184964,25.6978191 166.764158,25.8379467 167.182984,26.119759 C167.600253,26.4000143 167.896078,26.8359669 168.070459,27.4276169 C168.243283,28.019267 168.330473,28.8102096 168.330473,29.8020019 L168.330473,34.8388121 L169.621205,35.0007374 L169.621205,35.8788706 L165.355096,35.8788706 L165.355096,35.0007374 L166.465219,34.8388121 L166.465219,29.856496 C166.465219,29.1636427 166.415396,28.610917 166.314192,28.198319 C166.211432,27.7857209 166.021481,27.4789971 165.739669,27.2750335 C165.459414,27.0726269 165.056158,26.9714236 164.5299,26.9714236 C164.135986,26.9714236 163.71716,27.0570572 163.27498,27.2314382 C162.832799,27.4042623 162.456011,27.6097829 162.146174,27.8479999 C162.253605,28.315092 162.306542,28.9783628 162.306542,29.8393693 L162.306542,34.8388121 L163.580146,35.0007374 L163.580146,35.8788706 L159.242417,35.8788706 L159.242417,35.0007374 L160.424161,34.8388121 L160.424161,29.8206856 C160.424161,29.1029207 160.380565,28.5470811 160.290261,28.1547237 C160.201513,27.7592524 160.030246,27.4634273 159.779573,27.2656917 C159.528901,27.067956 159.147442,26.9714236 158.633641,26.9714236 C158.202359,26.9714236 157.746166,27.0772978 157.261947,27.2937172 C156.777728,27.5085796 156.355788,27.7592524 155.997684,28.0457355 L155.997684,34.8388121 L157.199668,35.0007374 L157.199668,35.8788706 L153.022307,35.8788706 L153.022307,35.0007374 Z" id="Fill-32" fill="#FEFEFE"></path>
                <path d="M177.094523,29.9466448 C177.130333,29.695972 177.149017,29.4390714 177.149017,29.1759428 C177.136561,28.3990129 176.971522,27.7855652 176.655456,27.3371568 C176.339391,26.8903053 175.839602,26.6661011 175.159205,26.6661011 C174.466351,26.6661011 173.913626,26.9167738 173.501028,27.4181194 C173.08843,27.919465 172.851769,28.7633447 172.792604,29.9466448 L177.094523,29.9466448 Z M171.959624,34.6596044 C171.19982,33.7160783 170.821476,32.4549295 170.821476,30.8792721 C170.821476,29.8392136 171.017654,28.92527 171.413126,28.1358843 C171.80704,27.3464986 172.359766,26.7361649 173.071303,26.3064401 C173.781283,25.8782723 174.590909,25.661853 175.500182,25.661853 C176.610304,25.661853 177.474425,25.9701338 178.089429,26.5851384 C178.704434,27.2001431 179.029841,28.0829472 179.067209,29.2288799 C179.067209,29.9591006 179.02517,30.5133833 178.941094,30.8948418 L172.775478,30.8948418 C172.798832,32.0781419 173.07286,33.0310098 173.599117,33.7550026 C174.125374,34.4774385 174.872721,34.8402134 175.839602,34.8402134 C176.317593,34.8402134 176.817382,34.7530228 177.335854,34.5801987 C177.855883,34.4058177 178.260696,34.2002971 178.54718,33.9605232 L178.8866,34.7499089 C178.540952,35.1080128 178.02715,35.4194076 177.345196,35.6825362 C176.664798,35.9456647 175.971945,36.0764505 175.266636,36.0764505 C173.820207,36.0764505 172.71787,35.6046875 171.959624,34.6596044 L171.959624,34.6596044 Z" id="Fill-33" fill="#FEFEFE"></path>
                <path d="M182.003506,27.3116224 L180.712774,26.9877719 L180.712774,26.0208911 L183.275553,25.6985976 L183.330047,25.6985976 L183.706835,26.0208911 L183.706835,26.7729095 L183.688151,27.2041912 C184.117876,26.8227326 184.686171,26.4755275 185.391481,26.1641327 C186.09679,25.852738 186.772516,25.6985976 187.417103,25.6985976 C188.169122,25.6985976 188.75143,25.8418392 189.164028,26.1283223 C189.576626,26.4148055 189.866223,26.8538721 190.034376,27.4455221 C190.200972,28.0371722 190.285049,28.8358997 190.285049,29.8385908 L190.285049,34.8582743 L191.53997,34.9828322 L191.53997,35.879649 L187.290989,35.879649 L187.290989,34.9999589 L188.402668,34.8582743 L188.402668,29.8199071 C188.402668,29.114598 188.354402,28.5634293 188.259426,28.163287 C188.164451,27.7615878 187.983842,27.4642058 187.72227,27.2664702 C187.457585,27.0687345 187.076126,26.9706451 186.574781,26.9706451 C186.145056,26.9706451 185.684192,27.0780763 185.193745,27.2929387 C184.703298,27.5078011 184.268902,27.7584739 183.885887,28.046514 L183.885887,34.8395906 L185.104997,34.9999589 L185.104997,35.879649 L180.8747,35.879649 L180.8747,34.9999589 L182.003506,34.8395906 L182.003506,27.3116224 Z" id="Fill-34" fill="#FEFEFE"></path>
                <polygon id="Fill-35" fill="#FEFEFE" points="194.440301 22.7577855 192.989201 22.5600498 192.989201 21.7893478 195.874274 21.4483706 195.910084 21.4483706 196.305555 21.717727 196.305555 34.8570287 197.828276 35.0002703 197.828276 35.8799604 192.989201 35.8799604 192.989201 35.0002703 194.440301 34.839902"></polygon>
                <path d="M205.3209,29.9466448 C205.356711,29.695972 205.375395,29.4390714 205.375395,29.1759428 C205.362939,28.3990129 205.1979,27.7855652 204.881834,27.3371568 C204.565768,26.8903053 204.06598,26.6661011 203.385582,26.6661011 C202.692729,26.6661011 202.140003,26.9167738 201.727405,27.4181194 C201.314807,27.919465 201.078147,28.7633447 201.018982,29.9466448 L205.3209,29.9466448 Z M200.186001,34.6596044 C199.426198,33.7160783 199.047853,32.4549295 199.047853,30.8792721 C199.047853,29.8392136 199.244032,28.92527 199.639503,28.1358843 C200.033418,27.3464986 200.586143,26.7361649 201.29768,26.3064401 C202.00766,25.8782723 202.817287,25.661853 203.726559,25.661853 C204.836682,25.661853 205.700802,25.9701338 206.315807,26.5851384 C206.930811,27.2001431 207.256219,28.0829472 207.293586,29.2288799 C207.293586,29.9591006 207.249991,30.5133833 207.167471,30.8948418 L201.001855,30.8948418 C201.02521,32.0781419 201.299237,33.0310098 201.825494,33.7550026 C202.351751,34.4774385 203.097542,34.8402134 204.06598,34.8402134 C204.543971,34.8402134 205.043759,34.7530228 205.562231,34.5801987 C206.082261,34.4058177 206.485517,34.2002971 206.773557,33.9605232 L207.112977,34.7499089 C206.767329,35.1080128 206.253528,35.4194076 205.571573,35.6825362 C204.891176,35.9456647 204.198322,36.0764505 203.493013,36.0764505 C202.046585,36.0764505 200.944247,35.6046875 200.186001,34.6596044 L200.186001,34.6596044 Z" id="Fill-36" fill="#FEFEFE"></path>
                <polygon id="Fill-37" fill="#FEFEFE" points="208.329908 25.9310538 212.488585 25.9310538 212.488585 26.7733766 211.216537 27.0053657 213.025741 32.1682907 213.779316 34.4461433 214.423903 32.2414684 216.234664 27.0053657 215.015553 26.7733766 215.015553 25.9310538 218.654201 25.9310538 218.654201 26.7733766 217.721574 27.0053657 214.263535 36.0218007 212.739258 36.0218007 209.13642 27.0053657 208.329908 26.7733766"></polygon>
                <path d="M225.892883,29.9466448 C225.928694,29.695972 225.947378,29.4390714 225.947378,29.1759428 C225.934922,28.3990129 225.769883,27.7855652 225.453817,27.3371568 C225.137751,26.8903053 224.637963,26.6661011 223.957565,26.6661011 C223.264712,26.6661011 222.711986,26.9167738 222.299388,27.4181194 C221.88679,27.919465 221.65013,28.7633447 221.590965,29.9466448 L225.892883,29.9466448 Z M220.757984,34.6596044 C219.998181,33.7160783 219.619836,32.4549295 219.619836,30.8792721 C219.619836,29.8392136 219.816015,28.92527 220.211486,28.1358843 C220.605401,27.3464986 221.158126,26.7361649 221.869663,26.3064401 C222.579643,25.8782723 223.38927,25.661853 224.298542,25.661853 C225.408665,25.661853 226.272785,25.9701338 226.88779,26.5851384 C227.502794,27.2001431 227.828202,28.0829472 227.865569,29.2288799 C227.865569,29.9591006 227.823531,30.5133833 227.739454,30.8948418 L221.573838,30.8948418 C221.597193,32.0781419 221.87122,33.0310098 222.397477,33.7550026 C222.923734,34.4774385 223.671082,34.8402134 224.637963,34.8402134 C225.115954,34.8402134 225.615742,34.7530228 226.134214,34.5801987 C226.654244,34.4058177 227.059057,34.2002971 227.34554,33.9605232 L227.68496,34.7499089 C227.339312,35.1080128 226.825511,35.4194076 226.143556,35.6825362 C225.463159,35.9456647 224.770305,36.0764505 224.064996,36.0764505 C222.618568,36.0764505 221.51623,35.6046875 220.757984,34.6596044 L220.757984,34.6596044 Z" id="Fill-38" fill="#FEFEFE"></path>
                <path d="M230.463536,27.3116224 L229.172804,26.9877719 L229.172804,26.0208911 L231.735583,25.6985976 L231.790077,25.6985976 L232.166865,26.0208911 L232.166865,26.7729095 L232.148181,27.2041912 C232.579463,26.8227326 233.146201,26.4755275 233.851511,26.1641327 C234.55682,25.852738 235.232546,25.6985976 235.877133,25.6985976 C236.629152,25.6985976 237.21146,25.8418392 237.624058,26.1283223 C238.036656,26.4148055 238.326253,26.8538721 238.494406,27.4455221 C238.661003,28.0371722 238.745079,28.8358997 238.745079,29.8385908 L238.745079,34.8582743 L240,34.9828322 L240,35.879649 L235.751019,35.879649 L235.751019,34.9999589 L236.862698,34.8582743 L236.862698,29.8199071 C236.862698,29.114598 236.814432,28.5634293 236.719456,28.163287 C236.624481,27.7615878 236.443872,27.4642058 236.1823,27.2664702 C235.917615,27.0687345 235.536156,26.9706451 235.034811,26.9706451 C234.605086,26.9706451 234.144222,27.0780763 233.653775,27.2929387 C233.163328,27.5078011 232.728933,27.7584739 232.345917,28.046514 L232.345917,34.8395906 L233.565027,34.9999589 L233.565027,35.879649 L229.33473,35.879649 L229.33473,34.9999589 L230.463536,34.8395906 L230.463536,27.3116224 Z" id="Fill-39" fill="#FEFEFE"></path>
                <polygon id="Fill-40" fill="#FEFEFE" points="81.9769714 26.9983593 81.9769714 26.9983593 81.9769714 26.0501622 84.7546126 25.709185 84.790423 25.709185 85.2030211 26.0314786 83.6382624 27.1135753"></polygon>
                <path d="M26.4293186,4.48087236 C24.8879146,1.1427206 20.9316442,-0.314606847 17.5919355,1.22679718 C14.2522267,2.76975819 12.7964563,6.72758551 14.3378603,10.0657373 L21.3007695,25.0399977 L21.8067859,24.5355382 L21.8176848,24.546437 C21.8332545,24.5308672 21.8457103,24.5137405 21.86128,24.4966138 C24.4629832,21.8964676 28.6792682,21.8964676 31.2794143,24.4966138 C33.8811175,27.098317 33.8811175,31.314602 31.2794143,33.9147481 C31.2638446,33.9318749 31.2467179,33.9443307 31.2311482,33.9583434 L31.2327051,33.9614574 L26.3064401,35.879649 L27.5987284,38.6666321 C29.1401324,42.0047839 33.0979597,43.4621113 36.4361115,41.9207073 C39.7758202,40.3793032 41.2331477,36.4230329 39.6901866,33.0833242 L26.4293186,4.48087236 Z" id="Fill-41" fill="#4F3586"></path>
                <polygon id="Path-2" fill="#2D2B70" fill-rule="nonzero" points="26.5923264 8.18164469 22.9103483 22.9095571 18.8192615 22.9095571"></polygon>
                <path d="M26.5706586,22.5600498 C26.5488609,22.5600498 26.5270633,22.5631638 26.5052657,22.5631638 L26.5052657,22.5475941 L20.1683824,22.5475941 L15.6344748,35.8799604 L26.5052657,35.8799604 L26.5052657,35.8768465 C26.5270633,35.8768465 26.5488609,35.8799604 26.5706586,35.8799604 C30.2482306,35.8799604 33.2298354,32.8983557 33.2298354,29.2192267 C33.2298354,25.5416546 30.2482306,22.5600498 26.5706586,22.5600498" id="Fill-42" fill="#EE4725"></path>
                <path d="M13.4861624,22.5479055 L13.4861624,22.572817 C9.92069249,22.7020459 7.06831655,25.6244856 7.06831655,29.2195381 C7.06831655,32.8161475 9.92069249,35.7401442 13.4861624,35.867816 L13.4861624,35.8802718 L16.4514466,35.8802718 L20.1686938,22.5479055 L13.4861624,22.5479055 Z" id="Fill-43" fill="#D43616"></path>
                <path d="M22.9419755,0.614971671 L22.9419755,0.614971671 C26.2816842,2.1563757 27.7390117,6.11420302 26.1960507,9.45391176 L12.7079869,38.6658536 C11.1650259,42.0055623 7.20875558,43.4628898 3.86904685,41.9199288 C0.529338114,40.3785247 -0.92643236,36.4222544 0.614971671,33.0841026 L14.1045924,3.86904685 C15.6459964,0.529338114 19.6022668,-0.92643236 22.9419755,0.614971671" id="Fill-44" fill="#7CCBBE"></path>
                <path d="M63.0401223,13.2303516 L61.5952506,8.80387521 L61.2200199,7.47266264 L60.8338904,8.80387521 L59.4077025,13.2303516 L63.0401223,13.2303516 Z M63.6784815,15.2341769 L58.7864699,15.2341769 L57.9021088,18.0522994 L54.9096052,18.0522994 L59.8280854,4.73083183 L62.6462079,4.73083183 L67.6082833,18.0522994 L64.5706275,18.0522994 L63.6784815,15.2341769 Z" id="Fill-45" fill="#210D3A"></path>
                <polygon id="Fill-46" fill="#210D3A" points="69.3323203 18.0522994 72.0616954 18.0522994 72.0616954 3.50549347 69.3323203 3.50549347"></polygon>
                <polygon id="Fill-47" fill="#210D3A" points="74.875147 18.0522994 77.606079 18.0522994 77.606079 3.50549347 74.875147 3.50549347"></polygon>
                <path d="M80.7028998,18.0522994 L83.4338318,18.0522994 L83.4338318,8.07521148 L80.7028998,8.07521148 L80.7028998,18.0522994 Z M80.6157092,4.31200588 C80.7791915,4.05977613 80.9956108,3.85892652 81.2634103,3.71257098 C81.5327668,3.5631015 81.814579,3.48836676 82.113518,3.48836676 C82.591509,3.48836676 82.9729675,3.62693743 83.2594507,3.90407876 C83.5459339,4.18277706 83.6876185,4.53932405 83.6876185,4.97527671 C83.6876185,5.26798778 83.6082128,5.54201516 83.4478445,5.79580189 C83.2874762,6.04803164 83.0741708,6.25043823 82.8094853,6.39835073 C82.5432428,6.54782022 82.2583166,6.62255496 81.9562637,6.62255496 C81.6573247,6.62255496 81.3895252,6.55716206 81.1513082,6.42949021 C80.9115343,6.30026139 80.7215835,6.12276638 80.5814558,5.89544821 C80.4413282,5.66813004 80.3712644,5.41122937 80.3712644,5.12474619 C80.3712644,4.83203512 80.452227,4.56267866 80.6157092,4.31200588 L80.6157092,4.31200588 Z" id="Fill-48" fill="#210D3A"></path>
                <path d="M90.9614885,16.03415 C91.2822251,15.91582 91.4924166,15.7912621 91.5920629,15.6635902 L91.5920629,13.2814204 C91.2588705,13.2814204 90.8836399,13.3187877 90.4663709,13.3919655 C90.0491019,13.4651433 89.7392641,13.5476629 89.5337436,13.6410813 C89.272172,13.7391707 89.0619805,13.8746274 88.9047262,14.0443375 C88.7474718,14.2124907 88.6680662,14.4631635 88.6680662,14.7963558 C88.6680662,15.263448 88.7941811,15.6153241 89.0479678,15.855098 C89.3033115,16.094872 89.6333899,16.213202 90.042874,16.213202 C90.3340281,16.213202 90.6407519,16.154037 90.9614885,16.03415 M92.5931971,8.37539603 C93.1739483,8.58247354 93.606787,8.9405775 93.8932702,9.45282187 C94.1781964,9.96506624 94.3229949,10.6812742 94.3229949,11.6030026 L94.3229949,18.0613298 L92.7286538,18.0613298 C92.4670822,18.0613298 92.2677895,18.0426462 92.1338898,18.0083927 C91.99999,17.9725823 91.8956728,17.8916197 91.8193811,17.7623909 C91.7430894,17.634719 91.705722,17.4307555 91.705722,17.1505002 L91.705722,17.0804364 C91.4021121,17.3622486 91.0284384,17.5942377 90.5847009,17.7810746 C90.1409634,17.9679114 89.6489597,18.0613298 89.1055758,18.0613298 C88.4641026,18.0613298 87.8973642,17.9227592 87.4038035,17.6440609 C86.9102428,17.3669195 86.5287842,16.982347 86.2578708,16.4903433 C85.9854004,15.9967826 85.8499437,15.437829 85.8499437,14.8134826 C85.8499437,14.2311744 85.9994131,13.7313858 86.2999091,13.3172308 C86.601962,12.9030757 87.0316868,12.5698834 87.5906403,12.3192106 C88.4609887,11.9346381 89.7937582,11.7415733 91.5920629,11.7415733 L91.5920629,11.2153162 C91.5920629,10.9039214 91.5437967,10.6750463 91.4472644,10.5286907 C91.350732,10.3823352 91.1670091,10.2826889 90.8960956,10.2281948 C90.6251822,10.1752577 90.1970144,10.1487891 89.6131493,10.1487891 C89.332894,10.1487891 88.9078401,10.2095111 88.3348738,10.3309551 C87.7634644,10.4508421 87.2730177,10.5909697 86.8650906,10.748224 L86.2609847,9.1071737 C86.4945308,8.96704606 86.8339511,8.81446263 87.2761316,8.65253736 C87.7198692,8.48905511 88.2072019,8.34892747 88.73813,8.23682536 C89.2690581,8.12316628 89.7797455,8.06555825 90.2701922,8.06555825 C91.2386299,8.06555825 92.0124458,8.16831851 92.5931971,8.37539603" id="Fill-49" fill="#210D3A"></path>
                <path d="M99.3227491,8.074433 L99.3756862,9.2374924 C99.7773854,8.94478133 100.280288,8.67542487 100.879723,8.43097999 C101.482272,8.18653511 102.063023,8.06509115 102.621976,8.06509115 C103.339741,8.06509115 103.926721,8.18653511 104.381357,8.43097999 C104.83755,8.6738679 105.17697,9.07868108 105.401175,9.64230558 C105.625379,10.2059301 105.739038,10.9610624 105.739038,11.9123733 L105.739038,18.0515209 L103.008106,18.0515209 L103.008106,12.5071373 C103.008106,11.9528547 102.964511,11.5246869 102.875763,11.21952 C102.788573,10.9127962 102.64066,10.6963768 102.430469,10.565591 C102.220277,10.4332483 101.921338,10.3678554 101.536766,10.3678554 C101.245612,10.3678554 100.915533,10.4379192 100.548087,10.5780468 C100.180642,10.7197314 99.8567911,10.923695 99.5765358,11.1930515 L99.5765358,18.0515209 L96.8456038,18.0515209 L96.8456038,8.074433 L99.3227491,8.074433 Z" id="Fill-50" fill="#210D3A"></path>
                <path d="M109.002766,9.96444345 L107.803897,9.96444345 L107.803897,8.48687535 C108.188469,8.37010232 108.467167,8.27979784 108.639992,8.21596191 C108.811259,8.15056901 108.965399,8.06182151 109.099299,7.94816242 C109.233199,7.83606031 109.337516,7.68347688 109.413807,7.49508306 C109.536808,7.18835922 109.754785,6.57958248 110.07085,5.66719585 L111.733698,5.66719585 L111.733698,8.0742773 L114.438162,8.0742773 L114.438162,9.96444345 L111.733698,9.96444345 L111.733698,13.8895743 C111.733698,14.5388324 111.767952,15.0137094 111.838016,15.3110914 C111.908079,15.6069164 112.018625,15.7968672 112.171208,15.8809438 C112.322234,15.9634634 112.555781,16.0039447 112.870289,16.0039447 C113.116291,16.0039447 113.398103,15.9634634 113.715726,15.8809438 C114.033349,15.7984242 114.268452,15.7050057 114.419478,15.5975745 L114.752671,17.115624 C114.478643,17.3616258 114.069159,17.5796022 113.522661,17.7726669 C112.97772,17.9657317 112.389184,18.0607071 111.760167,18.0607071 C111.089111,18.0607071 110.553512,17.9595038 110.15337,17.7555402 C109.753228,17.5515766 109.462074,17.2261691 109.278351,16.7824316 C109.094628,16.3371371 109.002766,15.7439301 109.002766,15.0028106 L109.002766,9.96444345 Z" id="Fill-51" fill="#210D3A"></path>
                <path d="M117.008414,18.0522994 L119.739346,18.0522994 L119.739346,8.07521148 L117.008414,8.07521148 L117.008414,18.0522994 Z M116.921224,4.31200588 C117.084706,4.05977613 117.299568,3.85892652 117.568925,3.71257098 C117.836724,3.5631015 118.120093,3.48836676 118.417475,3.48836676 C118.895466,3.48836676 119.276925,3.62693743 119.563408,3.90407876 C119.849891,4.18277706 119.993133,4.53932405 119.993133,4.97527671 C119.993133,5.26798778 119.91217,5.54201516 119.751802,5.79580189 C119.591434,6.04803164 119.378128,6.25043823 119.113443,6.39835073 C118.8472,6.54782022 118.562274,6.62255496 118.260221,6.62255496 C117.962839,6.62255496 117.693483,6.55716206 117.453709,6.42949021 C117.215492,6.30026139 117.025541,6.12276638 116.885413,5.89544821 C116.745286,5.66813004 116.675222,5.41122937 116.675222,5.12474619 C116.675222,4.83203512 116.757741,4.56267866 116.921224,4.31200588 L116.921224,4.31200588 Z" id="Fill-52" fill="#210D3A"></path>
                <path d="M128.298498,11.7326986 C128.298498,11.1690741 128.178611,10.7393493 127.940394,10.4481952 C127.70062,10.1539272 127.312934,10.0091286 126.775778,10.0091286 C126.238622,10.0091286 125.810454,10.164826 125.492831,10.4777777 C125.175209,10.7922864 124.969688,11.3232145 124.87627,12.0752328 L128.289156,12.0752328 C128.295384,11.9973841 128.298498,11.883725 128.298498,11.7326986 M130.730491,13.5870543 L124.832674,13.5870543 C124.885612,14.4122504 125.144069,15.0225841 125.60649,15.4258403 C126.070469,15.8290965 126.699486,16.0299462 127.493543,16.0299462 C127.873444,16.0299462 128.331194,15.980123 128.871464,15.8773627 C129.411734,15.7761594 129.807206,15.6547155 130.057878,15.5145878 L130.50473,17.0637767 C130.159082,17.344032 129.643723,17.5791351 128.953984,17.7721998 C128.265802,17.9652646 127.549594,18.06024 126.802246,18.06024 C125.797998,18.06024 124.94322,17.8625043 124.23791,17.463919 C123.531044,17.0668907 122.997002,16.4908104 122.635784,15.7356781 C122.27301,14.9836598 122.093958,14.080615 122.093958,13.0296577 C122.093958,12.0752328 122.282351,11.2220112 122.662253,10.4699928 C123.042155,9.71953148 123.59488,9.1309954 124.32043,8.70594156 C125.047537,8.27933074 125.911657,8.06602534 126.915905,8.06602534 C127.638341,8.06602534 128.29227,8.19214021 128.876135,8.44281299 C129.46,8.69348577 129.927093,9.09674197 130.280526,9.65258161 C130.633959,10.2099782 130.816125,10.9246292 130.82858,11.8012054 C130.82858,12.6030469 130.795884,13.1978109 130.730491,13.5870543" id="Fill-53" fill="#210D3A"></path>
                <path d="M59.9095151,35.0189539 L60.448228,35.0189539 C61.3434879,35.0064982 62.1359876,34.780737 62.822613,34.3385564 C63.5092385,33.8948189 64.0448374,33.234662 64.426296,32.3565288 C64.8093115,31.4799526 65.0008193,30.4118686 65.0008193,29.1569477 C65.0008193,27.2683385 64.5913352,25.8359227 63.772367,24.8565862 C62.9549558,23.8756927 61.7202756,23.3852459 60.0714404,23.3852459 C59.7242352,23.3852459 59.3131941,23.4101575 58.8352032,23.4568667 C58.6312396,23.4942341 58.4521877,23.5098038 58.2964903,23.5098038 L58.2964903,34.8741554 C58.7153162,34.9706878 59.2524722,35.0189539 59.9095151,35.0189539 L59.9095151,35.0189539 Z M56.3969823,23.6717291 L54.9988198,23.4568667 L54.9988198,22.5616068 L57.3467363,22.5616068 C57.717296,22.5616068 58.2497811,22.5366952 58.9410774,22.4884291 C59.6354877,22.4417198 60.15396,22.4168083 60.5011651,22.4168083 C62.7245237,22.4168083 64.3764728,22.9773188 65.4570126,24.093669 C66.5391094,25.2115762 67.0793793,26.7794488 67.0793793,28.7988437 C67.0793793,30.207905 66.802238,31.4612689 66.2463983,32.5542645 C65.6905587,33.6472601 64.9105148,34.4989247 63.9062668,35.1092584 C62.9035757,35.7180352 61.7498581,36.023202 60.448228,36.023202 C60.1617448,36.023202 59.6712981,35.9982904 58.9784448,35.9515812 C58.2606799,35.9017581 57.7235239,35.8799604 57.36542,35.8799604 L54.9100723,35.8799604 L54.9100723,35.0002703 L56.3969823,34.8212183 L56.3969823,23.6717291 Z" id="Fill-54" fill="#210D3A"></path>
                <path d="M70.3438862,23.8160606 C70.1523784,23.5996412 70.0558461,23.3271708 70.0558461,22.9924215 C70.0558461,22.6094059 70.1741761,22.2917833 70.4061652,22.0411105 C70.6397112,21.7904377 70.9588908,21.6643228 71.365261,21.6643228 C71.7716311,21.6643228 72.0705701,21.773311 72.2620779,21.9866164 C72.4520287,22.2030358 72.5485611,22.4786201 72.5485611,22.8118125 C72.5485611,23.2181827 72.431788,23.5404762 72.198242,23.7802502 C71.9662529,24.0200242 71.6408454,24.1383542 71.2220194,24.1383542 L71.2033357,24.1383542 C70.8218772,24.1383542 70.535394,24.030923 70.3438862,23.8160606 L70.3438862,23.8160606 Z M70.4871278,27.3114667 L69.1247757,26.9876162 L69.1247757,26.0394191 L71.9024169,25.6984419 L71.9382273,25.6984419 L72.3508254,26.0207354 L72.3508254,34.8581186 L73.7847982,35.0013601 L73.7847982,35.8794933 L69.0344713,35.8794933 L69.0344713,35.0013601 L70.4871278,34.8394349 L70.4871278,27.3114667 Z" id="Fill-55" fill="#210D3A"></path>
                <path d="M81.8128664,28.9416182 C81.8128664,28.1413337 81.6369283,27.5527976 81.2834953,27.17601 C80.9316192,26.8007793 80.4022481,26.6123855 79.698496,26.6123855 C79.0398961,26.6123855 78.5214238,26.7945514 78.1384083,27.1573263 C77.7569497,27.5232151 77.563885,28.1055233 77.563885,28.9073648 C77.563885,29.6593831 77.7476079,30.2572611 78.1119397,30.6994416 C78.4762716,31.1416222 79.0274403,31.3627124 79.7701168,31.3627124 C81.1324688,31.3627124 81.8128664,30.5546431 81.8128664,28.9416182 M81.4625473,39.4184947 C81.9825765,39.2456706 82.4045164,38.98877 82.72681,38.6477927 C83.0491036,38.3083724 83.2110288,37.9113441 83.2110288,37.4567078 C83.2110288,36.9179949 83.0677872,36.5271944 82.7813041,36.2827496 C82.4932639,36.0383047 81.9389813,35.9153037 81.1137852,35.9153037 L78.9994148,35.9153037 C78.5214238,35.9153037 78.1446362,35.8857212 77.8690518,35.8249993 C77.3786051,36.3637122 77.1341602,36.966261 77.1341602,37.6357598 C77.1341602,38.3052585 77.3365668,38.8128319 77.7444939,39.1584801 C78.1493071,39.5056853 78.8374895,39.6785093 79.8043702,39.6785093 C80.3897924,39.6785093 80.942518,39.5928758 81.4625473,39.4184947 M83.2826496,27.2227192 C83.5691328,27.6648997 83.7123744,28.1787011 83.7123744,28.7641232 C83.7123744,29.4678754 83.5364363,30.0922218 83.1845603,30.6356057 C82.8311272,31.1789895 82.3422375,31.6009294 81.714777,31.8998684 C81.0873166,32.1988074 80.3788935,32.3482768 79.5895078,32.3482768 C79.0757065,32.3482768 78.6163992,32.2937828 78.2100291,32.1863516 C78.0434329,32.3529478 77.9048622,32.5397846 77.797431,32.7421912 C77.6899998,32.9445978 77.6370627,33.1423335 77.6370627,33.3338412 C77.6370627,33.765123 77.7803043,34.059391 78.0667875,34.2213163 C78.3532707,34.3816846 78.867072,34.4626472 79.6081915,34.4626472 L81.6338144,34.4626472 C82.7922029,34.4626472 83.6532094,34.6837375 84.2137199,35.125918 C84.7757875,35.5680986 85.0575997,36.195559 85.0575997,37.0082993 C85.0575997,37.6886969 84.8115979,38.3146003 84.3227081,38.8813388 C83.8322614,39.4480772 83.1721045,39.8964857 82.3422375,40.2250071 C81.5108135,40.5535286 80.6124396,40.7185678 79.6440019,40.7185678 C78.1150537,40.7185678 77.0064884,40.4756799 76.3183059,39.993018 C75.6316805,39.5087992 75.2891463,38.8424144 75.2891463,37.9938637 C75.2891463,37.4691636 75.4526285,36.9849447 75.78115,36.5427642 C76.1096715,36.1005836 76.5004719,35.7658343 76.9551082,35.5385161 C76.4054965,35.2271213 76.1314691,34.7257758 76.1314691,34.0329225 C76.1314691,33.6016407 76.256027,33.1952706 76.5066998,32.813812 C76.7573726,32.4307964 77.087451,32.1396424 77.4938211,31.9356788 C76.8959432,31.6725502 76.4381929,31.2973195 76.1221273,30.8053158 C75.8060616,30.3164261 75.6472503,29.7372318 75.6472503,29.0677331 C75.6472503,28.3748798 75.841872,27.770774 76.2295584,27.2569726 C76.6172449,26.7431713 77.1310463,26.3492569 77.7709625,26.0736726 C78.4093217,25.7996452 79.0881623,25.6626315 79.8043702,25.6626315 C81.0125819,25.6626315 81.956108,25.9133043 82.6380625,26.4146498" id="Fill-56" fill="#210D3A"></path>
                <path d="M88.153175,23.8160606 C87.9616672,23.5996412 87.8666918,23.3271708 87.8666918,22.9924215 C87.8666918,22.6094059 87.9834648,22.2917833 88.2170109,22.0411105 C88.449,21.7904377 88.7681796,21.6643228 89.1745498,21.6643228 C89.5809199,21.6643228 89.8798589,21.773311 90.0713666,21.9866164 C90.2613174,22.2030358 90.3578498,22.4786201 90.3578498,22.8118125 C90.3578498,23.2181827 90.2410768,23.5404762 90.0075307,23.7802502 C89.7755416,24.0200242 89.4501341,24.1383542 89.0313082,24.1383542 L89.0141815,24.1383542 C88.6311659,24.1383542 88.3446827,24.030923 88.153175,23.8160606 L88.153175,23.8160606 Z M88.2964165,27.3114667 L86.9340645,26.9876162 L86.9340645,26.0394191 L89.7117057,25.6984419 L89.7490731,25.6984419 L90.1616711,26.0207354 L90.1616711,34.8581186 L91.594087,35.0013601 L91.594087,35.8794933 L86.845317,35.8794933 L86.845317,35.0013601 L88.2964165,34.8394349 L88.2964165,27.3114667 Z" id="Fill-57" fill="#210D3A"></path>
                <path d="M94.7293651,35.592076 C94.3946157,35.2822382 94.2280195,34.7497532 94.2280195,33.9977349 L94.2280195,27.1143538 L92.9372883,27.1143538 L92.9372883,26.3062844 C92.9964533,26.2953856 93.1646064,26.2533473 93.4386338,26.1817265 C93.7142182,26.1101057 93.8979411,26.0447128 93.9944734,25.9839909 C94.1844242,25.8781166 94.3354507,25.6616973 94.4428819,25.3394037 C94.5378573,25.1136425 94.6515164,24.7477537 94.7838591,24.2464081 C94.9146449,23.7450626 94.9909367,23.4445666 95.0158482,23.3495912 L96.0730334,23.3495912 L96.1088438,25.9310538 L98.531495,25.9310538 L98.531495,27.1143538 L96.1088438,27.1143538 L96.1088438,32.6166991 C96.1088438,33.2970967 96.1306415,33.7750876 96.1726797,34.050672 C96.214718,34.3262563 96.3034655,34.5053083 96.4420362,34.5878279 C96.5774929,34.6719045 96.8141529,34.7139428 97.1489023,34.7139428 C97.4711959,34.7139428 97.8277429,34.6719045 98.2154293,34.5878279 C98.6031158,34.5053083 98.9051687,34.4150038 99.1200311,34.3200284 L99.3893876,35.1249839 C99.1029044,35.3414032 98.6404832,35.5515947 98.000567,35.7540013 C97.3606507,35.9564079 96.7783425,36.0591681 96.2536424,36.0591681 C95.5716879,36.0591681 95.0641144,35.9019138 94.7293651,35.592076" id="Fill-58" fill="#210D3A"></path>
                <path d="M105.491323,34.5703898 C105.897694,34.378882 106.268253,34.1515639 106.603003,33.8899923 L106.603003,30.8056272 C105.299816,30.8056272 104.317365,31.0064768 103.654094,31.4066191 C102.990824,31.8083183 102.659188,32.3299045 102.659188,32.9760487 C102.659188,33.6206358 102.817999,34.0955128 103.134065,34.4006797 C103.450131,34.7058465 103.878299,34.8584299 104.415455,34.8584299 C104.726849,34.8584299 105.084953,34.7618976 105.491323,34.5703898 L105.491323,34.5703898 Z M101.475888,26.7621664 C101.595775,26.6936595 101.732789,26.6204817 101.888486,26.5410761 C102.307312,26.3246567 102.791531,26.1347059 103.341143,25.9681097 C103.889197,25.7999566 104.440366,25.71588 104.989978,25.71588 C105.838529,25.71588 106.509584,25.832653 107.006259,26.0646421 C107.501377,26.2997451 107.857924,26.6718619 108.072786,27.1856632 C108.287648,27.6994646 108.39508,28.38609 108.39508,29.2470965 L108.39508,35.0001146 L109.452265,35.0001146 L109.452265,35.7895003 C109.214048,35.8486653 108.911995,35.9078303 108.547663,35.9685522 C108.183331,36.0292742 107.862595,36.0588567 107.588567,36.0588567 C107.253818,36.0588567 107.0265,36.0074766 106.906613,35.9047163 C106.788283,35.80507 106.727561,35.5793088 106.727561,35.2336606 L106.727561,34.6420106 C106.369457,35.0001146 105.93039,35.328636 105.410361,35.629132 C104.890332,35.926514 104.301795,36.0759834 103.644753,36.0759834 C102.785303,36.0759834 102.070652,35.8284246 101.502357,35.33175 C100.935618,34.8366323 100.652249,34.1219814 100.652249,33.1893541 C100.652249,32.068333 101.21276,31.2384659 102.336895,30.7090949 C103.459473,30.1766098 104.88099,29.8916836 106.603003,29.8574302 L106.603003,29.3545277 C106.603003,28.7924601 106.542281,28.3502796 106.423951,28.027986 C106.304064,27.7056925 106.098543,27.4690324 105.805832,27.3211199 C105.511564,27.1700935 105.097409,27.0953587 104.558696,27.0953587 C103.949919,27.0953587 103.403422,27.1825493 102.919203,27.3553734 C102.606251,27.4674755 102.294856,27.5967043 101.985019,27.7399459 L101.475888,26.7621664 Z" id="Fill-59" fill="#210D3A"></path>
                <path d="M115.926317,34.5703898 C116.332688,34.378882 116.703247,34.1515639 117.037997,33.8899923 L117.037997,30.8056272 C115.73481,30.8056272 114.752359,31.0064768 114.089088,31.4066191 C113.425817,31.8083183 113.094182,32.3299045 113.094182,32.9760487 C113.094182,33.6206358 113.252993,34.0955128 113.569059,34.4006797 C113.885125,34.7058465 114.313293,34.8584299 114.850448,34.8584299 C115.161843,34.8584299 115.519947,34.7618976 115.926317,34.5703898 L115.926317,34.5703898 Z M111.910882,26.7621664 C112.030769,26.6936595 112.167783,26.6204817 112.32348,26.5410761 C112.742306,26.3246567 113.224968,26.1347059 113.77458,25.9681097 C114.324191,25.7999566 114.873803,25.71588 115.423415,25.71588 C116.273522,25.71588 116.944578,25.832653 117.441253,26.0646421 C117.93637,26.2997451 118.292917,26.6718619 118.50778,27.1856632 C118.722642,27.6994646 118.830073,28.38609 118.830073,29.2470965 L118.830073,35.0001146 L119.887259,35.0001146 L119.887259,35.7895003 C119.649042,35.8486653 119.346989,35.9078303 118.982657,35.9685522 C118.618325,36.0292742 118.297588,36.0588567 118.023561,36.0588567 C117.688812,36.0588567 117.461493,36.0074766 117.341607,35.9047163 C117.223276,35.80507 117.162555,35.5793088 117.162555,35.2336606 L117.162555,34.6420106 C116.804451,35.0001146 116.365384,35.328636 115.845355,35.629132 C115.325325,35.926514 114.736789,36.0759834 114.079746,36.0759834 C113.220297,36.0759834 112.505646,35.8284246 111.937351,35.33175 C111.370612,34.8366323 111.087243,34.1219814 111.087243,33.1893541 C111.087243,32.068333 111.647753,31.2384659 112.771888,30.7090949 C113.894467,30.1766098 115.315984,29.8916836 117.037997,29.8574302 L117.037997,29.3545277 C117.037997,28.7924601 116.977275,28.3502796 116.858945,28.027986 C116.739058,27.7056925 116.533537,27.4690324 116.239269,27.3211199 C115.946558,27.1700935 115.532403,27.0953587 114.99369,27.0953587 C114.384913,27.0953587 113.838416,27.1825493 113.354197,27.3553734 C113.041245,27.4674755 112.72985,27.5967043 112.420012,27.7399459 L111.910882,26.7621664 Z" id="Fill-60" fill="#210D3A"></path>
                <path d="M147.504548,34.5703898 C147.910918,34.378882 148.281478,34.1515639 148.61467,33.8899923 L148.61467,30.8056272 C147.31304,30.8056272 146.33059,31.0064768 145.667319,31.4066191 C145.004048,31.8083183 144.672413,32.3299045 144.672413,32.9760487 C144.672413,33.6206358 144.831224,34.0955128 145.14729,34.4006797 C145.463355,34.7058465 145.891523,34.8584299 146.428679,34.8584299 C146.740074,34.8584299 147.098178,34.7618976 147.504548,34.5703898 L147.504548,34.5703898 Z M143.489113,26.7621664 C143.609,26.6936595 143.746013,26.6204817 143.901711,26.5410761 C144.320537,26.3246567 144.803198,26.1347059 145.35281,25.9681097 C145.902422,25.7999566 146.452034,25.71588 147.001645,25.71588 C147.850196,25.71588 148.522809,25.832653 149.019483,26.0646421 C149.514601,26.2997451 149.871148,26.6718619 150.08601,27.1856632 C150.300873,27.6994646 150.408304,28.38609 150.408304,29.2470965 L150.408304,35.0001146 L151.465489,35.0001146 L151.465489,35.7895003 C151.227272,35.8486653 150.925219,35.9078303 150.560887,35.9685522 C150.196556,36.0292742 149.875819,36.0588567 149.601792,36.0588567 C149.267042,36.0588567 149.039724,36.0074766 148.919837,35.9047163 C148.801507,35.80507 148.740785,35.5793088 148.740785,35.2336606 L148.740785,34.6420106 C148.382681,35.0001146 147.943615,35.328636 147.423585,35.629132 C146.903556,35.926514 146.31502,36.0759834 145.657977,36.0759834 C144.798528,36.0759834 144.083877,35.8284246 143.515581,35.33175 C142.948843,34.8366323 142.665473,34.1219814 142.665473,33.1893541 C142.665473,32.068333 143.225984,31.2384659 144.350119,30.7090949 C145.472697,30.1766098 146.894214,29.8916836 148.61467,29.8574302 L148.61467,29.3545277 C148.61467,28.7924601 148.555505,28.3502796 148.437175,28.027986 C148.317288,27.7056925 148.110211,27.4690324 147.8175,27.3211199 C147.524789,27.1700935 147.110634,27.0953587 146.571921,27.0953587 C145.963144,27.0953587 145.416646,27.1825493 144.932427,27.3553734 C144.619476,27.4674755 144.308081,27.5967043 143.998243,27.7399459 L143.489113,26.7621664 Z" id="Fill-61" fill="#210D3A"></path>
                <polygon id="Fill-62" fill="#210D3A" points="122.788368 22.7577855 121.337268 22.5600498 121.337268 21.7893478 124.222341 21.4483706 124.258151 21.4483706 124.653622 21.717727 124.653622 34.8570287 126.176343 35.0002703 126.176343 35.8799604 121.337268 35.8799604 121.337268 35.0002703 122.788368 34.839902"></polygon>
                <path d="M134.421453,35.9145253 C133.931006,35.8070941 133.39385,35.6638525 132.808428,35.4848005 C132.450324,35.3540147 132.180968,35.2823939 132.001916,35.2699381 L132.145157,32.7024884 L133.292647,32.7024884 L133.597814,34.3559945 C133.800221,34.5459453 134.131856,34.7156555 134.591163,34.8666819 C135.052027,35.0161514 135.556487,35.0908861 136.107656,35.0908861 C137.015371,35.0908861 137.705111,34.8869226 138.176874,34.4805524 C138.648637,34.0741823 138.885297,33.5136717 138.885297,32.7959068 C138.885297,32.3288147 138.756068,31.9286724 138.499167,31.59548 C138.242267,31.2607307 137.901289,30.9742475 137.477793,30.7344735 C137.052739,30.4962565 136.470431,30.2144443 135.729311,29.8921507 C135.061369,29.5932118 134.477504,29.2880449 133.982386,28.9782071 C133.485712,28.6683693 133.055987,28.2526573 132.691655,27.7326281 C132.327323,27.2125989 132.145157,26.5882524 132.145157,25.8595887 C132.145157,25.2025457 132.321095,24.6124527 132.672972,24.0939804 C133.026405,23.5739512 133.533978,23.166024 134.197249,22.8655281 C134.86052,22.5681461 135.634336,22.4171197 136.518697,22.4171197 C137.068308,22.4171197 137.555641,22.4591579 137.979138,22.5432345 C138.404192,22.6273111 138.885297,22.7409702 139.422453,22.8842118 C139.66067,22.9682884 139.864633,23.0212255 140.032787,23.0445801 L139.923798,25.3800407 L138.830803,25.3800407 L138.472699,23.8510925 C138.352812,23.7327625 138.105253,23.6191034 137.728465,23.5101152 C137.351678,23.404241 136.942194,23.3497469 136.500013,23.3497469 C135.676374,23.3497469 135.052027,23.522571 134.626974,23.8697762 C134.203477,24.2154244 133.991728,24.7183269 133.991728,25.3738128 C133.991728,25.8533608 134.1194,26.253503 134.376301,26.5757966 C134.633201,26.8980902 134.952381,27.1736745 135.335397,27.4009927 C135.718412,27.6283109 136.327189,27.9381486 137.163284,28.33362 C137.940214,28.7026228 138.573902,29.0373721 139.064349,29.3363111 C139.553239,29.63525 139.975178,30.0276074 140.327055,30.5102693 C140.680488,30.9944881 140.856426,31.5705684 140.856426,32.2416241 C140.856426,32.8737555 140.680488,33.4825322 140.327055,34.0679544 C139.975178,34.6533765 139.438023,35.1344814 138.71403,35.5112691 C137.991594,35.8880567 137.116575,36.0764505 136.088972,36.0764505 C135.466182,36.0764505 134.910343,36.0219564 134.421453,35.9145253" id="Fill-63" fill="#210D3A"></path>
                <path d="M153.022307,35.0007374 L154.115303,34.8388121 L154.115303,27.3124009 L152.826129,26.9885503 L152.826129,26.0201127 L155.388907,25.6978191 L155.711201,25.9313651 L155.818632,26.6475731 L155.799948,27.2220964 C156.218774,26.8390809 156.788627,26.4887618 157.51262,26.1726961 C158.235055,25.8566304 158.884314,25.6978191 159.45728,25.6978191 C160.101867,25.6978191 160.621896,25.8052503 161.017368,26.0201127 C161.411282,26.234975 161.710221,26.5697244 161.912627,27.0243607 C162.295643,26.7020672 162.829685,26.4000143 163.517867,26.119759 C164.204493,25.8379467 164.845966,25.6978191 165.443844,25.6978191 C166.184964,25.6978191 166.764158,25.8379467 167.182984,26.119759 C167.600253,26.4000143 167.896078,26.8359669 168.070459,27.4276169 C168.243283,28.019267 168.330473,28.8102096 168.330473,29.8020019 L168.330473,34.8388121 L169.621205,35.0007374 L169.621205,35.8788706 L165.355096,35.8788706 L165.355096,35.0007374 L166.465219,34.8388121 L166.465219,29.856496 C166.465219,29.1636427 166.415396,28.610917 166.314192,28.198319 C166.211432,27.7857209 166.021481,27.4789971 165.739669,27.2750335 C165.459414,27.0726269 165.056158,26.9714236 164.5299,26.9714236 C164.135986,26.9714236 163.71716,27.0570572 163.27498,27.2314382 C162.832799,27.4042623 162.456011,27.6097829 162.146174,27.8479999 C162.253605,28.315092 162.306542,28.9783628 162.306542,29.8393693 L162.306542,34.8388121 L163.580146,35.0007374 L163.580146,35.8788706 L159.242417,35.8788706 L159.242417,35.0007374 L160.424161,34.8388121 L160.424161,29.8206856 C160.424161,29.1029207 160.380565,28.5470811 160.290261,28.1547237 C160.201513,27.7592524 160.030246,27.4634273 159.779573,27.2656917 C159.528901,27.067956 159.147442,26.9714236 158.633641,26.9714236 C158.202359,26.9714236 157.746166,27.0772978 157.261947,27.2937172 C156.777728,27.5085796 156.355788,27.7592524 155.997684,28.0457355 L155.997684,34.8388121 L157.199668,35.0007374 L157.199668,35.8788706 L153.022307,35.8788706 L153.022307,35.0007374 Z" id="Fill-64" fill="#210D3A"></path>
                <path d="M177.094523,29.9466448 C177.130333,29.695972 177.149017,29.4390714 177.149017,29.1759428 C177.136561,28.3990129 176.971522,27.7855652 176.655456,27.3371568 C176.339391,26.8903053 175.839602,26.6661011 175.159205,26.6661011 C174.466351,26.6661011 173.913626,26.9167738 173.501028,27.4181194 C173.08843,27.919465 172.851769,28.7633447 172.792604,29.9466448 L177.094523,29.9466448 Z M171.959624,34.6596044 C171.19982,33.7160783 170.821476,32.4549295 170.821476,30.8792721 C170.821476,29.8392136 171.017654,28.92527 171.413126,28.1358843 C171.80704,27.3464986 172.359766,26.7361649 173.071303,26.3064401 C173.781283,25.8782723 174.590909,25.661853 175.500182,25.661853 C176.610304,25.661853 177.474425,25.9701338 178.089429,26.5851384 C178.704434,27.2001431 179.029841,28.0829472 179.067209,29.2288799 C179.067209,29.9591006 179.02517,30.5133833 178.941094,30.8948418 L172.775478,30.8948418 C172.798832,32.0781419 173.07286,33.0310098 173.599117,33.7550026 C174.125374,34.4774385 174.872721,34.8402134 175.839602,34.8402134 C176.317593,34.8402134 176.817382,34.7530228 177.335854,34.5801987 C177.855883,34.4058177 178.260696,34.2002971 178.54718,33.9605232 L178.8866,34.7499089 C178.540952,35.1080128 178.02715,35.4194076 177.345196,35.6825362 C176.664798,35.9456647 175.971945,36.0764505 175.266636,36.0764505 C173.820207,36.0764505 172.71787,35.6046875 171.959624,34.6596044 L171.959624,34.6596044 Z" id="Fill-65" fill="#210D3A"></path>
                <path d="M182.003506,27.3116224 L180.712774,26.9877719 L180.712774,26.0208911 L183.275553,25.6985976 L183.330047,25.6985976 L183.706835,26.0208911 L183.706835,26.7729095 L183.688151,27.2041912 C184.117876,26.8227326 184.686171,26.4755275 185.391481,26.1641327 C186.09679,25.852738 186.772516,25.6985976 187.417103,25.6985976 C188.169122,25.6985976 188.75143,25.8418392 189.164028,26.1283223 C189.576626,26.4148055 189.866223,26.8538721 190.034376,27.4455221 C190.200972,28.0371722 190.285049,28.8358997 190.285049,29.8385908 L190.285049,34.8582743 L191.53997,34.9828322 L191.53997,35.879649 L187.290989,35.879649 L187.290989,34.9999589 L188.402668,34.8582743 L188.402668,29.8199071 C188.402668,29.114598 188.354402,28.5634293 188.259426,28.163287 C188.164451,27.7615878 187.983842,27.4642058 187.72227,27.2664702 C187.457585,27.0687345 187.076126,26.9706451 186.574781,26.9706451 C186.145056,26.9706451 185.684192,27.0780763 185.193745,27.2929387 C184.703298,27.5078011 184.268902,27.7584739 183.885887,28.046514 L183.885887,34.8395906 L185.104997,34.9999589 L185.104997,35.879649 L180.8747,35.879649 L180.8747,34.9999589 L182.003506,34.8395906 L182.003506,27.3116224 Z" id="Fill-66" fill="#210D3A"></path>
                <polygon id="Fill-67" fill="#210D3A" points="194.440301 22.7577855 192.989201 22.5600498 192.989201 21.7893478 195.874274 21.4483706 195.910084 21.4483706 196.305555 21.717727 196.305555 34.8570287 197.828276 35.0002703 197.828276 35.8799604 192.989201 35.8799604 192.989201 35.0002703 194.440301 34.839902"></polygon>
                <path d="M205.3209,29.9466448 C205.356711,29.695972 205.375395,29.4390714 205.375395,29.1759428 C205.362939,28.3990129 205.1979,27.7855652 204.881834,27.3371568 C204.565768,26.8903053 204.06598,26.6661011 203.385582,26.6661011 C202.692729,26.6661011 202.140003,26.9167738 201.727405,27.4181194 C201.314807,27.919465 201.078147,28.7633447 201.018982,29.9466448 L205.3209,29.9466448 Z M200.186001,34.6596044 C199.426198,33.7160783 199.047853,32.4549295 199.047853,30.8792721 C199.047853,29.8392136 199.244032,28.92527 199.639503,28.1358843 C200.033418,27.3464986 200.586143,26.7361649 201.29768,26.3064401 C202.00766,25.8782723 202.817287,25.661853 203.726559,25.661853 C204.836682,25.661853 205.700802,25.9701338 206.315807,26.5851384 C206.930811,27.2001431 207.256219,28.0829472 207.293586,29.2288799 C207.293586,29.9591006 207.249991,30.5133833 207.167471,30.8948418 L201.001855,30.8948418 C201.02521,32.0781419 201.299237,33.0310098 201.825494,33.7550026 C202.351751,34.4774385 203.097542,34.8402134 204.06598,34.8402134 C204.543971,34.8402134 205.043759,34.7530228 205.562231,34.5801987 C206.082261,34.4058177 206.485517,34.2002971 206.773557,33.9605232 L207.112977,34.7499089 C206.767329,35.1080128 206.253528,35.4194076 205.571573,35.6825362 C204.891176,35.9456647 204.198322,36.0764505 203.493013,36.0764505 C202.046585,36.0764505 200.944247,35.6046875 200.186001,34.6596044 L200.186001,34.6596044 Z" id="Fill-68" fill="#210D3A"></path>
                <polygon id="Fill-69" fill="#210D3A" points="208.329908 25.9310538 212.488585 25.9310538 212.488585 26.7733766 211.216537 27.0053657 213.025741 32.1682907 213.779316 34.4461433 214.423903 32.2414684 216.234664 27.0053657 215.015553 26.7733766 215.015553 25.9310538 218.654201 25.9310538 218.654201 26.7733766 217.721574 27.0053657 214.263535 36.0218007 212.739258 36.0218007 209.13642 27.0053657 208.329908 26.7733766"></polygon>
                <path d="M225.892883,29.9466448 C225.928694,29.695972 225.947378,29.4390714 225.947378,29.1759428 C225.934922,28.3990129 225.769883,27.7855652 225.453817,27.3371568 C225.137751,26.8903053 224.637963,26.6661011 223.957565,26.6661011 C223.264712,26.6661011 222.711986,26.9167738 222.299388,27.4181194 C221.88679,27.919465 221.65013,28.7633447 221.590965,29.9466448 L225.892883,29.9466448 Z M220.757984,34.6596044 C219.998181,33.7160783 219.619836,32.4549295 219.619836,30.8792721 C219.619836,29.8392136 219.816015,28.92527 220.211486,28.1358843 C220.605401,27.3464986 221.158126,26.7361649 221.869663,26.3064401 C222.579643,25.8782723 223.38927,25.661853 224.298542,25.661853 C225.408665,25.661853 226.272785,25.9701338 226.88779,26.5851384 C227.502794,27.2001431 227.828202,28.0829472 227.865569,29.2288799 C227.865569,29.9591006 227.823531,30.5133833 227.739454,30.8948418 L221.573838,30.8948418 C221.597193,32.0781419 221.87122,33.0310098 222.397477,33.7550026 C222.923734,34.4774385 223.671082,34.8402134 224.637963,34.8402134 C225.115954,34.8402134 225.615742,34.7530228 226.134214,34.5801987 C226.654244,34.4058177 227.059057,34.2002971 227.34554,33.9605232 L227.68496,34.7499089 C227.339312,35.1080128 226.825511,35.4194076 226.143556,35.6825362 C225.463159,35.9456647 224.770305,36.0764505 224.064996,36.0764505 C222.618568,36.0764505 221.51623,35.6046875 220.757984,34.6596044 L220.757984,34.6596044 Z" id="Fill-70" fill="#210D3A"></path>
                <path d="M230.463536,27.3116224 L229.172804,26.9877719 L229.172804,26.0208911 L231.735583,25.6985976 L231.790077,25.6985976 L232.166865,26.0208911 L232.166865,26.7729095 L232.148181,27.2041912 C232.579463,26.8227326 233.146201,26.4755275 233.851511,26.1641327 C234.55682,25.852738 235.232546,25.6985976 235.877133,25.6985976 C236.629152,25.6985976 237.21146,25.8418392 237.624058,26.1283223 C238.036656,26.4148055 238.326253,26.8538721 238.494406,27.4455221 C238.661003,28.0371722 238.745079,28.8358997 238.745079,29.8385908 L238.745079,34.8582743 L240,34.9828322 L240,35.879649 L235.751019,35.879649 L235.751019,34.9999589 L236.862698,34.8582743 L236.862698,29.8199071 C236.862698,29.114598 236.814432,28.5634293 236.719456,28.163287 C236.624481,27.7615878 236.443872,27.4642058 236.1823,27.2664702 C235.917615,27.0687345 235.536156,26.9706451 235.034811,26.9706451 C234.605086,26.9706451 234.144222,27.0780763 233.653775,27.2929387 C233.163328,27.5078011 232.728933,27.7584739 232.345917,28.046514 L232.345917,34.8395906 L233.565027,34.9999589 L233.565027,35.879649 L229.33473,35.879649 L229.33473,34.9999589 L230.463536,34.8395906 L230.463536,27.3116224 Z" id="Fill-71" fill="#210D3A"></path>
                <polygon id="Fill-72" fill="#210D3A" points="81.9769714 26.9983593 81.9769714 26.9983593 81.9769714 26.0501622 84.7546126 25.709185 84.790423 25.709185 85.2030211 26.0314786 83.6382624 27.1135753"></polygon>
            </g>
        </g>
    </g>
</svg>