<?xml version="1.0" encoding="utf-8"?>
<!-- Generator: Adobe Illustrator 15.0.2, SVG Export Plug-In . SVG Version: 6.00 Build 0)  -->
<!DOCTYPE svg PUBLIC "-//W3C//DTD SVG 1.1//EN" "http://www.w3.org/Graphics/SVG/1.1/DTD/svg11.dtd">
<svg version="1.1" id="Laag_1" xmlns="http://www.w3.org/2000/svg" xmlns:xlink="http://www.w3.org/1999/xlink" x="0px" y="0px"
	 width="283.465px" height="141.732px" viewBox="0 0 283.465 141.732" enable-background="new 0 0 283.465 141.732"
	 xml:space="preserve">
<path fill="#FFFFFF" d="M41.779,72.67h-0.87v4.563h0.87c1.077,0,1.231-0.261,1.284-2.281C43.063,72.877,42.856,72.67,41.779,72.67"
	/>
<rect x="97.729" y="65.646" fill="#FFFFFF" width="3.92" height="3.741"/>
<path fill="#FFFFFF" d="M42.959,67.466c0-1.56-0.258-1.866-1.103-1.866h-0.947v3.741h0.947
	C42.701,69.341,42.959,69.083,42.959,67.466"/>
<path fill="#FFFFFF" d="M82.641,65.6H81.77v11.633h0.871c0.769,0,1.076-0.359,1.076-1.59v-8.455
	C83.717,65.958,83.409,65.6,82.641,65.6"/>
<path fill="#FFFFFF" d="M46.803,76.818c0,2.461-1.181,3.742-4.076,3.742h-5.56V62.267h5.459c2.894,0,4.073,1.284,4.073,3.742v1.588
	c0,1.384-0.461,2.767-2.256,3.331v0.053c1.642,0.255,2.359,1.28,2.359,3.098V76.818z"/>
<polygon fill="#FFFFFF" points="56.687,65.6 53.183,65.6 53.183,69.341 56.507,69.341 56.507,72.67 53.183,72.67 53.183,77.232 
	56.687,77.232 56.687,80.561 49.439,80.561 49.439,62.267 56.687,62.267 "/>
<polygon fill="#FFFFFF" points="66.635,65.6 63.118,65.6 63.118,69.341 66.453,69.341 66.453,72.67 63.118,72.67 63.118,77.232 
	66.635,77.232 66.635,80.561 59.378,80.561 59.378,62.267 66.635,62.267 "/>
<polygon fill="#FFFFFF" points="75.798,80.561 69.324,80.561 69.324,62.267 73.063,62.267 73.063,77.232 75.798,77.232 "/>
<path fill="#FFFFFF" d="M87.459,76.256c0,3.435-1.537,4.306-4.817,4.306h-4.613V62.268h4.613c3.28,0,4.817,0.872,4.817,4.304V76.256
	z"/>
<polygon fill="#FFFFFF" points="108.639,80.527 104.924,80.527 101.686,72.719 97.729,72.719 97.729,77.189 101.672,77.189 
	101.672,80.537 93.987,80.537 93.987,62.316 101.672,62.316 101.672,65.647 101.67,65.647 105.105,73.691 105.156,73.691 
	105.156,62.341 108.639,62.341 "/>
<path fill="#FFFFFF" d="M124.335,67.342h-3.739v-1.104c0-0.715-0.313-1-1.076-1c-0.769,0-1.077,0.285-1.077,1v10.351
	c0,0.718,0.309,0.997,1.077,0.997c0.764,0,1.297-0.279,1.297-0.997v-3.918h-1.003v-3.33h4.521v11.22H121.9l-0.538-1.333
	c-0.767,1.125-1.407,1.693-3.024,1.693c-2.177,0-3.634-1.284-3.634-3.614V66.216c0-3.025,1.304-4.307,4.713-4.307
	c3.612,0,4.918,1.282,4.918,4.307V67.342z"/>
<polygon fill="#FFFFFF" points="134.666,65.6 130.973,65.6 130.973,69.341 134.485,69.341 134.485,72.67 130.973,72.67 
	130.973,77.232 134.666,77.232 134.666,80.561 127.231,80.561 127.231,62.267 134.666,62.267 "/>
<polygon fill="#FFFFFF" points="144.008,80.561 137.354,80.561 137.354,62.267 141.101,62.267 141.101,77.232 144.008,77.232 "/>
<path fill="#FFFFFF" d="M154.824,76.615c0,3.433-1.537,4.306-4.817,4.306c-3.281,0-4.818-0.873-4.818-4.306V62.267h3.739v13.787
	c0,1.28,0.31,1.532,1.079,1.532c0.764,0,1.075-0.252,1.075-1.532V62.267h3.742V76.615z"/>
<rect x="157.82" y="62.267" fill="#FFFFFF" width="3.735" height="18.294"/>
<path fill="#FFFFFF" d="M174.22,76.256c0,3.435-1.539,4.306-4.816,4.306h-4.613V62.268h4.613c3.277,0,4.816,0.872,4.816,4.304
	V76.256z"/>
<path fill="#FFFFFF" d="M169.403,65.6h-0.873v11.633h0.873c0.762,0,1.072-0.359,1.072-1.59v-8.455
	C170.476,65.958,170.165,65.6,169.403,65.6"/>
<path fill="#E00034" d="M41.779,72.67h-0.87v4.563h0.87c1.077,0,1.231-0.261,1.284-2.281C43.063,72.877,42.856,72.67,41.779,72.67"
	/>
<rect x="97.729" y="65.646" fill="#E00034" width="3.92" height="3.741"/>
<path fill="#E00034" d="M42.959,67.466c0-1.56-0.258-1.866-1.103-1.866h-0.947v3.741h0.947
	C42.701,69.341,42.959,69.083,42.959,67.466"/>
<path fill="#E00034" d="M82.641,65.6H81.77v11.633h0.871c0.769,0,1.076-0.359,1.076-1.59v-8.455
	C83.717,65.958,83.409,65.6,82.641,65.6"/>
<path fill="#E00034" d="M174.22,39.344V54.63H29.486v33.577H174.22v15.275h79.857V39.344H174.22z M46.803,76.818
	c0,2.463-1.181,3.742-4.077,3.742h-5.559V62.267h5.459c2.894,0,4.073,1.284,4.073,3.742v1.588c0,1.384-0.461,2.767-2.256,3.331
	v0.053c1.642,0.255,2.359,1.281,2.359,3.098V76.818z M56.688,65.6h-3.505v3.741h3.324v3.33h-3.324v4.562h3.505v3.328H49.44V62.267
	h7.247V65.6z M66.634,65.6h-3.516v3.741h3.335v3.33h-3.335v4.562h3.516v3.328h-7.256V62.267h7.256V65.6z M75.798,80.561h-6.474
	V62.267h3.74v14.966h2.733V80.561z M87.458,76.256c0,3.434-1.537,4.305-4.817,4.305h-4.611V62.267h4.611
	c3.28,0,4.817,0.873,4.817,4.305V76.256z M108.638,80.527h-3.714l-3.239-7.808h-3.956v4.469h3.943v3.349h-7.685V62.315h7.685v3.331
	h-0.002l3.436,8.045h0.051V62.341h3.481V80.527z M124.335,67.342h-3.74v-1.104c0-0.715-0.311-1-1.076-1
	c-0.768,0-1.075,0.285-1.075,1v10.351c0,0.718,0.308,0.997,1.075,0.997c0.766,0,1.299-0.279,1.299-0.997v-3.918h-1.005v-3.33h4.522
	v11.22h-2.434l-0.538-1.333c-0.769,1.125-1.407,1.693-3.026,1.693c-2.175,0-3.632-1.283-3.632-3.614V66.216
	c0-3.025,1.302-4.306,4.712-4.306c3.613,0,4.918,1.281,4.918,4.306V67.342z M134.666,65.6h-3.694v3.741h3.515v3.33h-3.515v4.562
	h3.694v3.328h-7.434V62.267h7.434V65.6z M144.008,80.561h-6.654V62.267h3.746v14.966h2.908V80.561z M154.824,76.615
	c0,3.433-1.537,4.306-4.818,4.306c-3.28,0-4.816-0.873-4.816-4.306V62.267h3.737v13.787c0,1.28,0.312,1.532,1.079,1.532
	c0.766,0,1.076-0.252,1.076-1.532V62.267h3.742V76.615z M161.556,80.561h-3.735V62.267h3.735V80.561z M174.22,76.256
	c0,3.434-1.539,4.305-4.816,4.305h-4.613V62.267h4.613c3.277,0,4.816,0.873,4.816,4.305V76.256z M246.442,95.847h-64.568V46.98
	h64.568V95.847z"/>
<path fill="#E00034" d="M169.403,65.6h-0.873v11.633h0.873c0.762,0,1.072-0.359,1.072-1.59v-8.455
	C170.476,65.958,170.165,65.6,169.403,65.6"/>
</svg>
